<svg id="Layer_1" data-name="Layer 1" xmlns="http://www.w3.org/2000/svg" viewBox="0 0 768 768"><defs><style>.cls-1{fill:#fefefe;}.cls-2{fill:#010101;}.cls-3{fill:#020101;}.cls-4{fill:#060504;}.cls-5{fill:#0c0a09;}.cls-6{fill:#060505;}.cls-7{fill:#080706;}.cls-8{fill:#110e0d;}.cls-9{fill:#12100f;}.cls-10{fill:#0b0808;}.cls-11{fill:#0d0908;}.cls-12{fill:#100c0b;}.cls-13{fill:#13100f;}.cls-14{fill:#16110f;}.cls-15{fill:#0d0a09;}.cls-16{fill:#141515;}.cls-17{fill:#120f0d;}.cls-18{fill:#0e0a08;}.cls-19{fill:#13100e;}.cls-20{fill:#15110e;}.cls-21{fill:#130f0f;}.cls-22{fill:#0e0c0b;}.cls-23{fill:#171412;}.cls-24{fill:#0b0706;}.cls-25{fill:#0b0909;}.cls-26{fill:#1b1614;}.cls-27{fill:#171a1a;}.cls-28{fill:#090808;}.cls-29{fill:#1a1412;}.cls-30{fill:#140f0e;}.cls-31{fill:#1a110f;}.cls-32{fill:#1d1614;}.cls-33{fill:#191615;}.cls-34{fill:#141110;}.cls-35{fill:#201816;}.cls-36{fill:#1f1a18;}.cls-37{fill:#1a1513;}.cls-38{fill:#0f0f0f;}.cls-39{fill:#fdfdfd;}.cls-40{fill:#050000;}.cls-41{fill:#1d1d1d;}.cls-42{fill:#1e1917;}.cls-43{fill:#303030;}.cls-44{fill:#181211;}.cls-45{fill:#211d1c;}.cls-46{fill:#1d1815;}.cls-47{fill:#271e1a;}.cls-48{fill:#221f1d;}.cls-49{fill:#222525;}.cls-50{fill:#171311;}.cls-51{fill:#2c2927;}.cls-52{fill:#261d1b;}.cls-53{fill:#313131;}.cls-54{fill:#020202;}.cls-55{fill:#c1c1c1;}.cls-56{fill:#da682b;}.cls-57{fill:#c1fefe;}.cls-58{fill:#1f1c1a;}.cls-59{fill:#1e120e;}.cls-60{fill:#050302;}.cls-61{fill:#080504;}.cls-62{fill:#1c120d;}.cls-63{fill:#0d0907;}.cls-64{fill:#d9672b;}.cls-65{fill:#fbfbfb;}.cls-66{fill:#1d1411;}.cls-67{fill:#d9672c;}.cls-68{fill:#d3652e;}.cls-69{fill:#2f1c16;}.cls-70{fill:#2c1a16;}.cls-71{fill:#0c0807;}.cls-72{fill:#0a0706;}.cls-73{fill:#130d0a;}.cls-74{fill:#201510;}.cls-75{fill:#030303;}.cls-76{fill:#da672b;}.cls-77{fill:#1c110e;}.cls-78{fill:#20130f;}.cls-79{fill:#1b110e;}.cls-80{fill:#201611;}.cls-81{fill:#311d17;}.cls-82{fill:#faf9f9;}.cls-83{fill:#2d221e;}.cls-84{fill:#261f1d;}.cls-85{fill:#bffbfb;}.cls-86{fill:#121310;}.cls-87{fill:#19110e;}.cls-88{fill:#221711;}.cls-89{fill:#080605;}.cls-90{fill:#271914;}.cls-91{fill:#242524;}.cls-92{fill:#312018;}.cls-93{fill:#2d2320;}.cls-94{fill:#0c0b0a;}.cls-95{fill:#151110;}.cls-96{fill:#0d0d0d;}.cls-97{fill:#353535;}.cls-98{fill:#3b2d29;}.cls-99{fill:#292929;}.cls-100{fill:#020201;}.cls-101{fill:#010000;}.cls-102{fill:#1c1917;}.cls-103{fill:#1e170e;}.cls-104{fill:#221a10;}.cls-105{fill:#0e0e08;}.cls-106{fill:#1a150e;}.cls-107{fill:#18110f;}.cls-108{fill:#211510;}.cls-109{fill:#281914;}.cls-110{fill:#1a1c1a;}.cls-111{fill:#1a160c;}.cls-112{fill:#221e1c;}.cls-113{fill:#060201;}.cls-114{fill:#181612;}.cls-115{fill:#202016;}.cls-116{fill:#090604;}.cls-117{fill:#0e0907;}.cls-118{fill:#19100c;}.cls-119{fill:#261a17;}.cls-120{fill:#2c1d17;}.cls-121{fill:#301d17;}.cls-122{fill:#321b15;}.cls-123{fill:#351f19;}.cls-124{fill:#5b372a;}.cls-125{fill:#fcfbfb;}.cls-126{fill:#161210;}.cls-127{fill:#120c0a;}.cls-128{fill:#2e201a;}.cls-129{fill:#251d1b;}.cls-130{fill:#15110f;}.cls-131{fill:#2c1c15;}.cls-132{fill:#231911;}.cls-133{fill:#3a2c22;}.cls-134{fill:#3c241c;}.cls-135{fill:#231b0f;}.cls-136{fill:#2c1a13;}.cls-137{fill:#c25e31;}.cls-138{fill:#271912;}.cls-139{fill:#21130f;}.cls-140{fill:#4c3e3b;}.cls-141{fill:#321c15;}.cls-142{fill:#341f18;}.cls-143{fill:#301d14;}.cls-144{fill:#4b3833;}.cls-145{fill:#43312b;}.cls-146{fill:#3b3736;}.cls-147{fill:#3b251c;}.cls-148{fill:#725149;}.cls-149{fill:#664339;}.cls-150{fill:#110909;}.cls-151{fill:#39322b;}.cls-152{fill:#2f231e;}.cls-153{fill:#47352d;}.cls-154{fill:#3a3533;}.cls-155{fill:#7f6259;}.cls-156{fill:#453631;}.cls-157{fill:#4b2b20;}.cls-158{fill:#20130d;}.cls-159{fill:#432920;}.cls-160{fill:#3b2419;}.cls-161{fill:#fcd901;}.cls-162{fill:#f8d603;}.cls-163{fill:#3c322f;}.cls-164{fill:#fbd802;}.cls-165{fill:#f1d208;}.cls-166{fill:#ddc213;}.cls-167{fill:#24210f;}.cls-168{fill:#fafafa;}.cls-169{fill:#252121;}.cls-170{fill:#524d4d;}.cls-171{fill:#e1e1e1;}.cls-172{fill:#100f07;}.cls-173{fill:#1f1d0d;}.cls-174{fill:#332e10;}.cls-175{fill:#eace0b;}</style></defs><path class="cls-1" d="M.09,383.5Q.09,194,0,4.59C0,.84.84,0,4.59,0Q384,.15,763.41,0c3.75,0,4.59.84,4.59,4.59q-.15,379.41,0,758.82c0,3.75-.84,4.59-4.59,4.59Q384,767.85,4.59,768C.84,768,0,767.16,0,763.41Q.17,573.45.09,383.5Z" transform="translate(0)"/><path d="M266,534c3.4-13.39,4.49-27.18,6.91-40.74,2.59-14.57,4.73-29.3,9.29-43.36,4.16-12.83,11-24.6,19.36-35.2,9.36-11.9,15-25.17,18.72-39.74a349.19,349.19,0,0,1,18.48-54.15,137,137,0,0,1,10.89-19.52c.9-1,1.71-2.17,3.34-1.35a4.37,4.37,0,0,1,1.18,3.39,5.38,5.38,0,0,1-1.42,3.6c-6.46,7.24-9.67,16.24-13.34,25-1.42,3.36-2.43,6.9-3.76,10.32-.48,1.22-1.11,2.69,0,3.75s2.47.09,3.6-.58c.72-.42,1.38-.94,2.13-1.31,5.07-2.49,9.08-.53,9.7,5.12.89,8.12,1.21,16.28-1.08,24.26-2.16,7.51-3,15.4-6.22,22.59-2.69,5.94-6.8,8.7-11.83,8.16-5.42-.59-7.83-3.17-8.26-8.81-.15-2.06.26-4.23-.66-6.12a2.43,2.43,0,0,0-2.38,2c-2.95,10.74-9.9,19.23-16.34,27.83-7.43,9.92-10,21.28-11.9,32.94-2.84,17.5.66,34.81,2.37,52.14a39.48,39.48,0,0,1-5.37,24.39c-3.07,5.29-7.73,8.31-14.06,7.63-3.51-.37-5,.9-5.92,4.3-3.42,13.2-.25,20.2,10.77,28.16,12.81,9.24,22.15,21.43,26.4,37a4,4,0,0,1-.15,2.92c-1.93,1.45-2.62-.26-3.37-1.43a22.5,22.5,0,0,0-2.07-3.38c-5-9.25-10.6-18-18.58-25.18a75.07,75.07,0,0,0-9.35-7.45c-6.16-4-9.25-9.61-10.41-16.81-1.72-10.68-3.89-21.3-7.89-31.43-2.34-5.92-5.24-7.07-10.84-4.3-4.31,2.13-8.78,4.06-12.45,7.3-3.93,3.46-5.24,8.38-7.09,13a2,2,0,0,1-1.39.56c-2.75-.59-.78-3.19-1.9-4.48.75-5.72,3.9-10.12,8.11-13.68,5-4.22,11.11-6.62,17.13-8.88,5.05-1.9,9.88.85,11.91,6.14s3.87,10.92,5.79,16.39C265.29,535.73,265.48,534.52,266,534Z" transform="translate(0)"/><path class="cls-2" d="M519.08,397.28c-.8,22.44-10.38,41.66-22.33,59.89a123.21,123.21,0,0,1-35.54,35.22c-9.15,6.06-14,15.8-19.93,24.59-9.69,14.47-15.31,30.9-21.88,46.85a10,10,0,0,0-.64,2.4c-.2,1.51-.28,3.13,1.18,4.06,1.74,1.11,2.67-.55,3.74-1.44a112.1,112.1,0,0,1,31.08-18.62,74.56,74.56,0,0,1,18.76-4.91c14-1.57,22,8,17.76,21.46-2.21,7.07-6.21,13.27-10.52,19.14a18.17,18.17,0,0,0-3.48,14.93c1.32,7.08-.64,12.93-5.51,18.28-9.39,10.31-18.46,20.91-27.67,31.39.53,2.14,4-.5,4,2.49-2.08,1.82-4.64,1.13-7,1.23a12.58,12.58,0,0,0-5.17,1.19,8.89,8.89,0,0,1-1.53.52c-2.86-.47-6.22,3.21-8.66-1a2.74,2.74,0,0,1,2.18-1.87c8.85-.8,14.13-7,19.32-13,6.71-7.84,13.62-15.5,20.44-23.24,3.35-3.81,5.55-7.89,4.93-13.08a31.71,31.71,0,0,1,7.43-25A40.91,40.91,0,0,0,486.77,566c3.4-9.86-1.25-16-11.61-15.89-7.55,0-14.4,2.55-21.11,5.45a109.46,109.46,0,0,0-29.81,18.92,16.66,16.66,0,0,0-5.84,12.76c-.14,21.14-.06,42.28,0,63.42,0,1.82-.12,3.74,1.88,4.8,1.15.44,2.44.65,3,2,0,.33,0,.79-.22.92-8.78,4.73-12.46,15.24-21.86,19.24-1.06,1-1,2.56-1.62,3.76-.53.66-1.12,1-1.93.43a4.16,4.16,0,0,1-.7-1.49,9,9,0,0,1,.44-5.14c1.15-2.17,3.18-3.36,5.17-4.56,6.92-4.18,9.7-10.46,10-18.36.57-15.14-1.4-30.2-1.05-45.33.64-26.89,1-53.79,4.09-80.56.35-3.05.12-6.4,2.93-8.66,3.54.35,2.47,3.21,2.87,5.26.19,6.77-.73,13.55,0,21,1.85-1.38,2.27-3,2.86-4.41,6.36-15.52,15.13-29.59,25.37-42.81a38,38,0,0,1,8.72-8.12c27.55-18.8,45.32-44.48,53.87-76.65,1.11-4.18,1-8.61,2.67-12.66.94-1.46.72-3.17,1-4.77.31-1.82,1-3.19,3.25-2.56,1.72.65,3.41,1.33,4.15,3.24C522.83,397.73,519.86,395.4,519.08,397.28Z" transform="translate(0)"/><path d="M491,116.16c3.94-.52,6.29,1.64,8,4.8,1.32,2.51,1,5.7,3.27,7.82-4.35,13-9.78,25.29-20.1,34.81-1.47,1.68-3.68,1.89-5.56,2.75-5.51,2.17-10.53.54-15.16-2.32a85.65,85.65,0,0,1-19.16-16.52c-3.43-3.91-4.28-8.42-1.73-12.9,2.95-5.21,5.15-11.36,12.09-12.93a2.39,2.39,0,0,1,1.61,1.44c.1,2.08-1.54,3.18-2.59,4.62-.86,1.17-2.24,2.39-.89,3.9s2.76.57,4.14,0a11.21,11.21,0,0,0,2.55-1.53c8.37-6.66,17.8-10,28.59-9.29,2.24.14,5,.48,4.31-3.39A1.89,1.89,0,0,1,491,116.16Z" transform="translate(0)"/><path class="cls-3" d="M221.14,535c1.5.92.28,3.14,1.92,4,1.66,1.92,1.32,4.21,1.18,6.47-1.41,9.86-5.41,18.74-10.06,27.48-7,13.11-12.53,26.47-13.09,42-.67,18.54,8.37,30,23.12,38.77,3.6,2.14,8.16,3.07,10.26,7.35-1.76,3.67-5.46,1.45-8,2.67-3.31,1.43-.24,4-1.08,5.91a2.46,2.46,0,0,1-2.55,1.08,3,3,0,0,1-.95-.3c-11.88-7.25-14.86-7.15-25.8,1.49a68.72,68.72,0,0,0-16.62,18.49c-5.83,9.67-1.2,18.28,10.26,19.24,7.76.65,14.59-2.85,21.79-4.78,8.63-2.32,16.58-7.13,25.83-7.22,1.84,0,3.68,0,5.51,0,1.6.11,3.28,0,4.34,1.59.22,1.72-1.68.86-2.14,1.75-13.44,1.06-25.61,6.65-38.23,10.65a77.25,77.25,0,0,1-11.11,2.7c-9.14,1.47-16.31-1.63-22.08-8.55-1.32-1.58-2.56-3.08-4.93-2.46a.67.67,0,0,1-.49,0c-5.46-4.4-14.21-4.7-16.39-13.17-.2-.8-.23-2-.76-2.33-9.29-5.77-5.81-14.51-5.1-22.45.32-3.57.9-7.27,2.88-10.48,2.71-.07,2.16,2.14,2.56,3.67.09,4.2-1.5,8.16-1.83,12.31a16.05,16.05,0,0,0,.66,6.39c3.1,1.65,4.58,4.11,4.15,7.72a4.47,4.47,0,0,0,1.59,3.93c3.34,2.29,2.72-1.06,3.47-2.44.5-1,.74-2.47,2.12-2.4s1.44,1.56,1.68,2.63.1,2.31.71,3.35a17.85,17.85,0,0,0,1.32,2.12c1.11,1.41,1.9,3.51,4,3.4,2.36-.13,2.15-2.63,2.94-4.17,5.19-10.12,12.82-18.13,21.59-25.19,4.33-3.49,4.27-3.57-.75-6-1.34-.66-3-1.07-2-3.19,1.73-1.25,3.48-.45,5.22-.07,5.69,4.6,12.86,2.45,19.16,4.25,4.7,1.35,4.67,1.45,8.2-1.85-3.72-3-7.93-5.19-11.64-8.14-14.22-11.33-17.72-26.48-15.37-43.32.94-6.74.26-12-3.25-18.09-11.62-19.94-19.47-41.38-22.42-64.44a16.26,16.26,0,0,0-.65-2.31c1.83-1.83,3.16-1.56,3.84,1,.38,1.42.26,3,1.12,4.27,3.21,13,6.57,26,11.64,38.54a151.73,151.73,0,0,0,11.51,22.85c2,.09,2.17-1.31,2.57-2.28,2.75-6.59,5.89-13,9.21-19.31a8.13,8.13,0,0,0-.07-8.49,14.37,14.37,0,0,1-2.12-7.09c.32-1.24.21-2.88,2.28-2.56,2.12,2.48,2.32,6.1,4.92,8.67,2.73-4,3.21-8.54,4.88-12.59,1.42-2.93-.26-6.18.95-9.13Z" transform="translate(0)"/><path class="cls-3" d="M247,699.76c-1.14-1.25-2.67-.7-4.05-.86a1,1,0,0,1,.24-1.4,5.23,5.23,0,0,1,2.22-.78c2.32-.18,4.69,0,6.94-.8,9.77-2,19.82-1.51,29.62-3.32,1.62-.3,3.27-.5,4.89-.85,3.75-.79,5.76-2.83,5.77-6.87,0-9.59,4.79-17,11.15-23.63,1.54-.56,2.9-2.71,4.74-.53.64,2.65-1.15,4.38-2.5,6.2a50.83,50.83,0,0,0-6.75,12.68,15.94,15.94,0,0,0-1,5.34c-.06,3.17.77,4.82,4.09,2.6,1.4.52,1.65,1.75,1.84,3,.14,3.14,0,6.37,2.07,9,.88,1.13,1.76,2.86,3.44,2.36s.91-2.26,1-3.5c.79-8.44,4.53-15.55,10.2-21.62a22.55,22.55,0,0,1,12.28-7.13c3.86-.1,7.71-2.39,11.56,0a1.22,1.22,0,0,1,.2,1.44c-1.45,1.21-3.36,1-5,1.65-13.74,3.28-24,16.34-23.73,30.19a11.22,11.22,0,0,0,.63,4.42c.85,1.87,2.07,3.86,4.22,3.77,2.31-.1,1.44-2.58,1.87-4,2.26-7.6,4.95-14.88,12.83-18.61a3,3,0,0,1,2.42,1.64c-3.8,4.47-6.1,9.73-8,15.21a37.31,37.31,0,0,0-1.61,5.76c-1.5,8.6,1.69,13.36,10.31,15,6,1.17,12,.36,17.73-1.4,12.8-3.88,24.66-9.75,36.18-16.53,8.31-4.9,9.55-13.6,6.24-22.13-.53-1.35-1.73-2.52-1.07-4.17l1-1c1.09-.54,1.86.1,2.65.68a8.44,8.44,0,0,1,1.41,1.69c2.76,3.78,8.17,4.61,14.72,2.21,7.83-1.57,15.87-1.41,23.73-2.82,2.94-.53,5.93-.86,8.9-1.27A18.1,18.1,0,0,1,465,685.23c10.2,8.28,21.35,5.62,32.33,2.63,3.69-1,6.2-4.38,7.87-8,.69-1.49,1-3.21,2.63-4.11,2-.13,2,1.41,2.38,2.71a7.87,7.87,0,0,1-.8,4.5c.26,5.82-6,5-8.34,8.1-9.19,5.66-29.55,5.42-37.36-1.15-4.76-4-9.75-4.73-15.33-3.69A226,226,0,0,1,410.65,690c-3.45.06-5.22.65-4.68,4.75.92,7-2.46,12.57-8.08,16-14.89,9.17-30.31,17.35-47.79,20.6A28.74,28.74,0,0,1,331.63,729c-1.62-.8-4-1.63-4.45-3-2.38-7.41-10.13-9.55-14.19-15.17a9.81,9.81,0,0,0-4.35-3.08A15.72,15.72,0,0,1,300.2,699c-1.54-3.89-3.43-6.23-8.45-3.6-4.37,2.28-9.64,2.33-14.62,2.72q-11.94.93-23.87,1.89C251.16,700.5,249.06,700.89,247,699.76Z" transform="translate(0)"/><path class="cls-4" d="M210.22,549.88c-1.35.76-1.12,2.12-1.3,3.33-2.46-.42-2.8-2.62-3.55-4.38-9-21.35-8.94-42.54.59-63.81,5.93-13.21,12.67-26,19.06-39,7.07-14.37,13.21-29.05,16-44.94a13.59,13.59,0,0,1,.93-2.83c1.47-3.65.18-7.54,1-11.23.21-1,.56-2.11,1.72-2,.89.06.81,1.28,1.21,2,1.87,16.37-4.11,31-9.84,45.79-6.63,17.07-16,32.81-23.92,49.28-10.58,22.07-12,43.89-2.12,66.35A5.44,5.44,0,0,1,210.22,549.88Z" transform="translate(0)"/><path class="cls-5" d="M535.73,300.11c-4.67-.79-4.8-5-5.78-8.24-1.2-4-3.31-4.61-6.67-3-2.84,1.35-5.67,2.75-8.45,4.23-14.79,7.85-30.53-.28-32.59-16.85-1-8.2,3.37-13.95,11.55-15a24.88,24.88,0,0,1,11.33,1.13,17.56,17.56,0,0,0,5.86,1c2.46,0,4.21-.43,2.07-3.32-.49-.67-.84-1.44-1.26-2.15-4.88-8.16-6.56-16.55-2.36-25.63,1.87-4,3-8.45,4.84-12.54,1.09-2.46,2.22-5.24,5.53-5.74,2.2-.78,4.47-.27,6.71-.33,1.21,2.4-1,2.38-2.18,3.15a9,9,0,0,0-7.3,6.59,29.8,29.8,0,0,1-1.66,4.14c-5.94,11.77-5.55,22.88,3.31,33.16a3.62,3.62,0,0,1,.8,2.31c-.43,2.17-2.63,2.2-4,3.28-3.54,1.68-7.17,1.31-10.72.21a26.27,26.27,0,0,0-10.88-.95c-4.67.52-7.54,3.71-7.51,8.42.08,13.43,13,22.55,24.9,16.41,4-2,7.88-4.34,12.21-5.66,4.51-1.38,6.32-.6,8.48,3.63,1.43,2.8,2,6,4.4,8.32,2,1.73,4.22,1.18,6.42.48a10.49,10.49,0,0,1,4.27-1c1,.25,2.07.42,1.87,1.87-1.77.94-3.3,2.51-5.57,2.18A17,17,0,0,1,535.73,300.11Z" transform="translate(0)"/><path class="cls-6" d="M501,691.07c1.35-1.84,2-4.06,5.41-3.7,1.87.2-.76-3.55,1.67-4.4,3.31,2.22,7.28,1.14,9.65-2.74a13.66,13.66,0,0,0,1.9-8c.16-1.93-.36-4.07,1.61-5.46,3.85,1.35,4.88.87,4.34-3-1.45-10.62-5.82-19.53-16-24.55-1.62-.8-3.36-1.35-4.93-2.28a15.25,15.25,0,0,1-3.64-2.36c-4.71-4.3-11.87-4.64-18.88-.7-6.14,3.44-11,8.5-16,13.28-2.44,2.3-4.8,4.62-8.35,5-3.3-.27-6.37,2.52-9.78.73-.79-1.6-3.42-.21-3.87-2.38,6.85-.26,13.36-1.07,18.69-6.33,4.48-4.4,8.85-9,14.1-12.56,6.18-4.21,13.41-7,20.2-4.32,8.55,3.43,17,8,23.68,14.65,6,5.95,8.72,13.67,9.56,21.95.42,4.25,0,8.53-5.18,10-1.7.48-1.13,1.75-1.34,2.77-1.84,9.15-8.36,13.9-17.49,12.31C503.82,688.56,503,691,501,691.07Z" transform="translate(0)"/><path class="cls-7" d="M174.17,528.93c-1.71-1.12-1.13-2.89-1.08-4.39.1-2.68-1.58-1.64-2.85-1.57,0-.67.07-1.34.1-2a15,15,0,0,0,0-10,57.59,57.59,0,0,1,5.8-22.31q13.91-29,28-57.88c3.86-8,6.38-16.36,8.86-24.79,2.31-11.26,2.17-22.57.63-33.91a31.07,31.07,0,0,1-.06-4,1.58,1.58,0,0,1,.76-1.47,2.52,2.52,0,0,1,1.69.07,3.2,3.2,0,0,1,1,1.38c1,4.27-.16,8.68.77,13a11.91,11.91,0,0,1,.36,1.57,40.65,40.65,0,0,1,.11,8,10.19,10.19,0,0,1-.28,1.56c-1,3-.32,6.19-.71,9.26A9.81,9.81,0,0,1,217,403a14.54,14.54,0,0,0-.59,5.29c-.89,7.52-3.7,14.46-6.69,21.3-6.19,14.15-13.33,27.86-20.3,41.64-3.22,6.37-6,12.93-9.07,19.39a56.69,56.69,0,0,0-5,27.16C175.47,521.47,176.41,525.41,174.17,528.93Z" transform="translate(0)"/><path class="cls-8" d="M334.12,184.06c-1.43-17.68,1.81-34.86,6.05-51.83,1.42-5.71,1.08-9.74-3.83-13.28-2.45-1.77-4.36-4.27-6.52-6.44-.51-1.83.77-1.86,2-2,4.9,2.7,8.33,7,11.76,11.21,1.9,2.35,1.84,5.22,1.17,8.09a307.4,307.4,0,0,0-7.05,42.63c-.33,3.48-.17,7-.23,10.43,0,3.25-.42,6.51.42,9.72a13.76,13.76,0,0,1,.4,2.38c.1,2.1,0,4.23.71,6.26,2.52,13.24,7.13,25.94,10,39.08-.18,1.39-.11,3-2.26,2.8-4.33-13.7-9.35-27.22-10.87-41.65-.89-2.07.27-4.4-.83-6.45l-.15-1.71C333.86,190.31,335.21,187.08,334.12,184.06Z" transform="translate(0)"/><path class="cls-9" d="M583.12,224c2.33,3.42,2,7.28,1.64,11-1.52,17.54-2.12,35.07,1.27,52.46.87,4.51,2.85,8.8,4.24,13.21.75,2.34,2.06,4.55,1.77,7.15.27,1.47-.22,2.34-1.83,2.33-1.73-1-2.1-2.88-2.79-4.55-8.87-21.31-9.07-43.58-7.22-66,.37-4.47-.11-9,.53-13.41C581.15,225,581.39,223.68,583.12,224Z" transform="translate(0)"/><path class="cls-10" d="M245.89,387c-1.18-1.18-1.8-1.73-1.93.73-.2,3.76,1.2,7.69-1,11.28-2.54-5.78-1.06-12.05-2.2-18s-1.17-11.86-2.28-17.73a28.38,28.38,0,0,0-4.25-10.53c-1.74-2.64-3.94-4.5-7.38-4a8.8,8.8,0,0,0-7.16,5.45c-1.11,2.37-.78,5.32-3,7.25a3.12,3.12,0,0,1-1.59.32,2.32,2.32,0,0,1-1.41-.78c-.62-2.55,1-4.71,1.21-7.12,1.27-6,5.33-9,11-9.95,5.92-1,9.83,2.12,12.72,6.81a36.46,36.46,0,0,1,5,14.52C244.6,372.43,245.17,379.72,245.89,387Z" transform="translate(0)"/><path class="cls-11" d="M563.91,345.85c.24-9.93.59-19.86-1-29.73-.48-1.55-1.25-3.16.72-4.3,3.63,4.1,4.46,9.21,4.55,14.33.17,9.26.87,18.59-1.89,27.68-1.2,4,0,7.47,2.54,10.67a102.3,102.3,0,0,0,8.62,9.63,20.5,20.5,0,0,1,3.3,3.72c.89,1.4,1.11,2.82-.26,4a2.63,2.63,0,0,1-3.66-.06c-6.88-6-13.54-12.31-16.7-21.26-1.45-4.1,1.15-8.19.28-12.32C560.51,345.87,563.07,347.13,563.91,345.85Z" transform="translate(0)"/><path class="cls-12" d="M524,215.86l3-1.47c.14-.77.5-.9,1.1-.39,3,2.33,5.57,2.82,9,0,2.88-2.41,7.13-2.12,10.3-.15,2.93,1.83,3.73.58,5.1-1.62,5.37-8.58,14.32-9,20.53-1.13.82,1.07.46,1.83-.63,2.4-1.9.31-3-1.14-4.38-2-5.3-3.22-8.74-2.38-12.21,2.75-1.72,2.54-2.46,5.87-5.65,7.27-2.05-.13-2-2.34-3.25-3.27-3.8-2.65-7-1.77-10.19,1.32-4.12,4-6.6,9-8.79,14.24a16.57,16.57,0,0,0,0,9.13,31,31,0,0,1,.95,5.24c-.14,1.09-.45,2.05-1.79,2.13-4.69-3.95-4.2-9.42-4-14.65.09-3.33,1.48-6.44,3-9.45C529,220,529,220,524,215.86Z" transform="translate(0)"/><path class="cls-13" d="M466.82,196.11c-1.77-.59-2.85-3.14-5.54-1-2,1.58-1.71,2.88-1.21,4.67a8.25,8.25,0,0,1,0,5.44c-2.15,5.55,1.52,8.36,5.49,10.39,4.51,2.32,5,5.77,4.19,10-2.06,10.51-7.8,18.17-17.64,22.63-.81-1-.44-2.1-.38-3.18.59-1.51,1.95-2.2,3.2-3a23.92,23.92,0,0,0,8.81-10.52c3.36-7.3,2.8-9.86-3.46-14.81-3.86-3.06-6.32-6.24-3.75-11.41,1.08-2.17.57-4.54-.54-6.71a5.27,5.27,0,0,1-.51-2.9c3.37-3.11,6.28-7,11.63-6.7.78,3.68,3.06,5.09,6.76,4.73a10.76,10.76,0,0,1,5.35.55c.67.43,1.2.92.78,1.82a3.54,3.54,0,0,1-3.45,1C473.16,198.1,470,197.41,466.82,196.11Z" transform="translate(0)"/><path class="cls-14" d="M454.18,123.12l-1.29-1.39c1.59-4.44,6-4.5,9.38-6.1-.28-.65-.79-.18-1.18-.27-7.74,1.1-15.08,3.23-21.65,7.58-1.36.91-2.76,1.81-4.53,1.66a2.46,2.46,0,0,1-1.84-2.27,3.8,3.8,0,0,1,.46-2.19c6.9-3.7,6.82-3.64,2.34-10.62-2.27-3.52-5.52-6.63-5.54-11.28.49-1.32.49-3,2.48-3.16,1.63,7.64,7.47,12.88,11.05,19.4.65,1.18,1.68.53,2.59.22,2.31-.78,4.55-1.89,7.09-1.78a48.9,48.9,0,0,1,12.79,0,.39.39,0,0,1,.65.09c6,1.51,12.16-.31,18.17,1a14.39,14.39,0,0,1,5.83,2.18c0,.34,0,.68-.05,1-2.07,1.72-4.18.85-6.28.08-4-1.41-8-1-12.1-.3C466.11,118.05,460.67,122.16,454.18,123.12Z" transform="translate(0)"/><path class="cls-15" d="M155.21,689.88a3.48,3.48,0,0,1-2-3.16c.12-3.5.16-6.78-4.11-7.94,1.27-1,1.44-2.58,1.73-4a67,67,0,0,1,8-20.9c-3.14-1-4.6.28-5.86,2.2-.76,1.17-.91,3-2.86,3-.28-1.47.41-3.25-1.31-4.28,1.79-4.93,5.18-7.53,10.12-6.31,5.89,1.46,11.73,1.51,17.68,1.56,2.38,0,5,.42,6.49,2.84a2.59,2.59,0,0,1-3.25.33c-3-2.18-6.46-1.84-9.35-1.8,1.84.75,4.72-1.25,6.76,1.18-1.6,2.25-4.18,1.7-6.35,2-5.72.8-9.29,4-11,9.34-2.4,7.69-5.58,15.25-4.07,23.63A2.67,2.67,0,0,1,155.21,689.88Z" transform="translate(0)"/><path class="cls-13" d="M593,311.85c8.77,21.55,22,41.11,28.33,63.74.31,1.1.46,2.25.68,3.37-.2,1.21.06,2.62-1.44,3.26-2.11-.78-2.06-2.86-2.61-4.51a236.16,236.16,0,0,0-17.62-40.55c-3.74-6.77-7.47-13.71-8.7-21.58C591.72,314.19,591.79,312.81,593,311.85Z" transform="translate(0)"/><path class="cls-16" d="M453.07,268.84c.29.39.73.75.84,1.19,1.51,5.92,4.59,8.32,11.24,7.15,6-1.05,8.17,1.17,9,7.18.95,6.73,5.69,11.79,7.45,18.22.86,3.16-1.2,6.67,1.53,9.37-4.27,1.21-2.89-2.69-4-4.36a28.08,28.08,0,0,0-3.5-9.24,45.68,45.68,0,0,1-5.29-12.81,5.85,5.85,0,0,0-8.14-4c-1.63.66-1.73,1.83-1.38,3.23a18.38,18.38,0,0,0,4.32,8.27c-.53,2.42-2.34,2.42-4.24,2.25a85.08,85.08,0,0,1-9.65-24A3.48,3.48,0,0,1,453.07,268.84Z" transform="translate(0)"/><path class="cls-17" d="M502,129.05c-2.48-2.15-2.68-5.13-2.94-8.09,1.73,2.76,2.52,6.1,7,6.47,2.32.19,3.49,3.24,4.1,5.78a31.84,31.84,0,0,1-2.42,21.85c-3.72,7.6-8.76,14.45-14.17,21-1.2,1.45-2.86,2.14-4.39,3.07-1,.38-1.37-.22-1.63-1,0-2.26,1.76-3.45,3-5a111.05,111.05,0,0,0,13.15-19.28c2.85-5.33,3.26-11,3-16.92C506.45,133.44,504,131.43,502,129.05Z" transform="translate(0)"/><path class="cls-18" d="M176.93,653.32c-2-2.9-5.28-.36-7.9-1.9,5.07-1.52,9.55.29,14.09,1.49,1.92,2.23,4.45,2.13,7.1,2.2,2.06,0,4.29.21,6,1.76-1.74.41-3.85-.71-5.22,1.26a4.14,4.14,0,0,1-2.08,1.29c-14.61,4.43-22.12,14.83-24.76,29.35a3.39,3.39,0,0,1-1.09,2.16c-1.13-.75-1-1.93-1-3.06,0-1,0-1.92,0-3.42-.84,1.09-1.37,1.79-1.91,2.48-2.13-2.39-.59-4.74.26-6.94a45,45,0,0,1,15.72-20.67C179.06,657.18,179.23,655.69,176.93,653.32Z" transform="translate(0)"/><path class="cls-19" d="M563.91,345.85l-3,2.36c-2,1.38-3.86.24-5.72-.3-8.88-2.61-16.83-7.13-24.55-12.11-7.43-4.79-15-9.27-23.39-12.27-1.09-.39-2.21-.84-2.49-2.2.65-1.46,2.05-1.21,3.26-1.41,8.63,1.9,15.73,6.93,23,11.47,9.62,6,19.37,11.6,30.46,14.42A10.27,10.27,0,0,0,563.91,345.85Z" transform="translate(0)"/><path class="cls-20" d="M396,80.18c6.23-.65,9.61-4.33,11-10.22a2.49,2.49,0,0,1,1.26-1.45c4.58-2.1,3.83-5.05,1.43-8.31,1-2.34-1.1-5.48,1.85-7.34,2.53,3.52,2.72,7.94,4.56,11.75.79,1.63-.68,3.1-1.9,4.27s-2.93,2.23-3.82,3.86c-1.11,2-2.59,4.24-1.34,6.5s3.57.77,5.45.74c4.56-.09,9.49-1.11,11.72,4.67-1.06,1.76-2.73.8-4.16.94-1.47-.19-2.94-1.06-4.37-.7-7.56,1.88-14.27-1.25-21.18-3.33A1.32,1.32,0,0,1,396,80.18Z" transform="translate(0)"/><path class="cls-21" d="M412.17,53.13c-2.65,1.73.3,5.38-2.44,7.07-1.49-.91-.83-2.39-.85-3.6-.06-5,9.73-18.73,14.44-20.32,4.95-1.67,9.77,1.34,9.1,6.37-.59,4.4.46,7.6,3.57,10.43a1.65,1.65,0,0,1,.21,2c-5.19-.45-7.93-3.64-7.83-9.16,0-1.91,1-4.24-1.51-5.18s-4.06.79-5.58,2.35a81.16,81.16,0,0,0-5.5,7C414.8,51.37,414.2,53.13,412.17,53.13Z" transform="translate(0)"/><path class="cls-22" d="M453.07,268.84c-.14.9-.29,1.81-1.27,2.24-2.91-.39-2.44-3.5-4-5-1.15-1.33-3.57-.75-4.25-2.8-.12-2.35,2-3.34,3.09-4.89,1.73-2.36,3.31-4.69,1.46-7.7-.72-.93-1.7-1.73-1.52-3.11,1.17-2.06,2.76-2.93,5.06-1.78,1.36.58.49,1.6.48,2.46.63,2.37,1.69,3.5,4.55,2.85a12.74,12.74,0,0,1,8.7,1.21c1,.52,2.17,1.3,1.3,2.69-.69,1.1-1.76.65-2.63.1-2.43-1.53-5.06-1.29-7.71-1-2.18.25-3.74,1.21-4.16,3.52.16.8,1.45,1.19.81,2.26-3.14.49-4.81,1.35-1.61,4.36A6.41,6.41,0,0,1,453.07,268.84Z" transform="translate(0)"/><path class="cls-23" d="M396,80.18l.11,1-.49.47c-1.21.61-2.59.73-3.83,1.26-7.82,3.19-12.95,9.65-18.69,15.36-1.05,1-1.65,2.52-3.16,3.09a1.64,1.64,0,0,1-1.59-1.14,2.79,2.79,0,0,1,0-1.89c1.84-3.77.14-4-2.94-3a3,3,0,0,1-1.58-2.4c-.16-4.09-1.73-8.22.37-12.24a2,2,0,0,1,1.2-1A2,2,0,0,1,367.24,81a2.43,2.43,0,0,1-.07,1.53c-2.3,2.73-.51,6.51.93,7,2.32.79,5.59,3.72,8.32-.21,1.19-1.71,3.15-2.87,4.72-4.33C385.36,81,389.85,78,396,80.18Z" transform="translate(0)"/><path class="cls-24" d="M423,85.16c1-1.3,2,.29,3-.08a1.67,1.67,0,0,1,2.36,1.12c.82,4.26,3.29,4.14,6.41,2.66,1.12,1.07.74,2.28.34,3.48-.76.92-1.53,1.83-2.29,2.74-1.18.71-.6,2.64-2.14,3.1-4.29-1.75-8.19-4.74-13.37-3.49-1.4.34-2.16-1.3-2.16-2.75,0-2,.63-3.81,2.65-4.26S421.62,86.81,423,85.16Z" transform="translate(0)"/><path class="cls-25" d="M508,319.92c-.74,1.28-2,1-3.19,1.16-1.55,1.52-3.38,1-5.15.67-2-.34-3.95-.5-5.66.9a3.78,3.78,0,0,1-1.93.92c-3.55-.62-5.31-3.84-8.08-5.6a63.51,63.51,0,0,0-5.56-3.3A3.3,3.3,0,0,1,477,312.1c.12-2.17.67-4.1,2.88-5.09,2.12,1-.39,5,3.24,4.94,5.64,5.08,12.38,6.56,19.78,6.31A7.25,7.25,0,0,1,508,319.92Z" transform="translate(0)"/><path class="cls-26" d="M621,395c-1.46,4.77-6,5.56-9.7,6.69-10.44,3.16-20.93,1.23-31.34-.68-1.72-1.15-3.8-.06-5.57-.91l-2.43-.19c-.41-1.15.29-1.72,1.13-2.22a3.79,3.79,0,0,1,1.38-.16,46.08,46.08,0,0,0,5.52.32,12.73,12.73,0,0,1,2.11.35c2.1.73,4.33.44,6.48.83a10.88,10.88,0,0,1,1.48.33c5.85.34,11.71.79,17.53-.31,3.57-1.38,6.79-3.61,10.58-4.45C619,395.42,620.11,394.46,621,395Z" transform="translate(0)"/><path class="cls-27" d="M352.05,300c-1.07-.09-.75,2.48-2.4,1.24l-7.14-24.35c2.51-2.66-.09-6.15,1.46-9a2.55,2.55,0,0,1,2.81-2.1l.75.31a2,2,0,0,1,.77,1.34,15.11,15.11,0,0,0-.29,14.22c2.07,4.5,2.56,9.53,4.48,14.11A3.76,3.76,0,0,1,352.05,300Z" transform="translate(0)"/><path class="cls-28" d="M339.28,47.18l1.43-1.26c1.59-.46,1.8.69,2.08,1.77-.4,3.71-2.5,7-2.89,10.68-1.38,3.16.69,7-2,9.93-2.05.77-3.53-.53-5.13-1.41-1.89-1.47-.77-3.3-.58-5C334.14,56.79,335.71,51.49,339.28,47.18Z" transform="translate(0)"/><path class="cls-29" d="M435.1,92.34c-.23-1.19.07-2.61-1.33-3.34-1.25-1.77-.38-3.5.15-5.19,1.37-4.41,2.74-8.82,4.37-13.13,1.75-4.65,2-9-1.67-12.88a3.11,3.11,0,0,1-.78-2.29l.15-2.43c2.64,2,5.61,3.65,6.11,7.38,1,1.94.91,4,.83,6.12-.4,1.41-.19,3-.95,4.29C439,77.82,438.72,85.61,435.1,92.34Z" transform="translate(0)"/><path class="cls-30" d="M563.85,312c-1.36,1.13-.67,2.72-.93,4.09-1.53-6.4-6-11.64-7.18-18.18-.29-1.59-1.28-1.53-2.61-1.11s-2.54,1.7-4.18,1.14c-.51-.86-1.4-.94-2.26-1.08,1.69-3.77,5.36-3.92,8.65-4.61a2.83,2.83,0,0,1,3.14,2c1.7,5,4.09,9.72,6,14.61A2.65,2.65,0,0,1,563.85,312Z" transform="translate(0)"/><path class="cls-31" d="M355.23,41a11.27,11.27,0,0,1,1.45,11.8c-2.78,6.43-1.18,10.45,4.42,13.7A19.58,19.58,0,0,1,363,68c.31,1.11-.4,1.48-1.25,1.76C354,68,350.52,63.14,352,55.59c.85-4.24.21-8.53.88-12.75C353.35,41.79,353.64,40.57,355.23,41Z" transform="translate(0)"/><path class="cls-26" d="M346.76,243.15c1.41-.76,1.21-2.17,1.37-3.43a2.42,2.42,0,0,1,2.11,1.87c2.08,6.8,5.06,13.36,5.56,20.59a2.58,2.58,0,0,1-2.16,2.06l-.73-.31Z" transform="translate(0)"/><path class="cls-32" d="M519.08,397.28c.41-2.26,3.24-.55,3.91-2.39,1.52-1.35,3.29-1.15,5.09-.86a48.19,48.19,0,0,0,17.27-.15,47.77,47.77,0,0,1,10.21-.32c1.74.07,3.66,0,4.59,2-2.76,1.92-5.66.34-8,.88,1.42.12,3.4-.07,5.36.06,1,.06,2.5-.52,2.46,1.43C546.33,397.43,532.71,396.93,519.08,397.28Z" transform="translate(0)"/><path class="cls-33" d="M322.89,100.2c-2.35-6.06.16-11.78,1.27-17.6.79-2.44.66-5.39,3.62-6.65,2.81,3.51,1.46,7.43,1.12,11.24a2.6,2.6,0,0,1-1,1.13c-.36.7-1.18-1.54-1.38.19-.33,2.89.3,5.94-1.34,8.63a1.46,1.46,0,0,1-1.39,0,12,12,0,0,1-.09-5.44,30.72,30.72,0,0,0,0,7.36A2,2,0,0,1,322.89,100.2Z" transform="translate(0)"/><path class="cls-19" d="M215,353.81c.63,2.52-1.08,4.77-.83,7.24a4.56,4.56,0,0,1,.05,5.91c1.08,9.68.95,19.4.88,29.11A22.33,22.33,0,0,1,213,406c1.91-13.73,1-27.45,0-41.18C212.75,361.07,212.88,357.23,215,353.81Z" transform="translate(0)"/><path class="cls-34" d="M487.85,177.7l1.28,1.42c-1,1.4-1,2.54-.3,4.35,2.27,5.77.25,9.64-5.75,11.74-1,.35-1.77,1.64-3.09,1L478.77,195c0-.51.11-1.11.54-1.3,5.37-2.38,8-5.93,5.85-12.07A2.88,2.88,0,0,1,487.85,177.7Z" transform="translate(0)"/><path class="cls-35" d="M355.23,41a2.58,2.58,0,0,0-1.34,2.34c-3.55-1.7-6.17-.48-8.45,2.46-.82,1.06-1.51,2.71-3.43,2.32a2.22,2.22,0,0,0-1.3-2.18c1.1-2.86,3.37-4.88,5.56-6.74C349.71,36.25,352.75,37.8,355.23,41Z" transform="translate(0)"/><path class="cls-36" d="M571.78,213.1c.93-.37,1.08-1.18,1.17-2,3.72,4,8.61,7.16,10.17,12.9-1,.51-1.18,1.49-1.39,2.45C577.94,222.33,573.43,218.79,571.78,213.1Z" transform="translate(0)"/><path class="cls-37" d="M324,97.07h.71c2.36,4.66,5.88,8.74,7,14a1.93,1.93,0,0,0-1.85,1.42c-3.84-3.24-6.44-7.18-6.93-12.31.15-.18.29-.38.43-.57C323.74,98.83,323.27,97.8,324,97.07Z" transform="translate(0)"/><path class="cls-38" d="M621,395c-.81.22-1.7,1-2.26-.36a30.64,30.64,0,0,1,2-12.28c.26-1.2,0-2.59,1.29-3.4A17.59,17.59,0,0,1,621,395Z" transform="translate(0)"/><path class="cls-39" d="M339.28,47.18c-1.88,5-5,9.5-6.32,14.77-.79,1.44-.68,3.39-2.39,4.33l-.61-.22C332.38,59.42,333.82,52.31,339.28,47.18Z" transform="translate(0)"/><path class="cls-40" d="M560,398c-2.69-2.17-6.06-.22-10.28-2.07h10.46a2.36,2.36,0,0,1,1.35-.35c3.52.19,6.94,1.07,10.43,1.51a3.23,3.23,0,0,1,1.22.73L572,399.91c-2.2.79-4-.92-6-1-1.6-1-3.53.17-5.13-.82l-.45.12Z" transform="translate(0)"/><path class="cls-41" d="M454,258.12c2.85-.85,5.35.79,8,1.25a3.08,3.08,0,0,1,2.17,3.48c0,.47-.17,1.21-.45,1.32-1.78.67-2-1.32-3-1.92-1.26-.74-2.51-1.51-3.77-2.26C456.37,258.75,453.81,260.65,454,258.12Z" transform="translate(0)"/><path class="cls-39" d="M327.16,76.13l-3,6.47A34.93,34.93,0,0,1,330,66.06l.26.2a2.82,2.82,0,0,1,.48,2.64c-.25.89-.64,1.73-1,2.59C329,73.11,329.1,75.19,327.16,76.13Z" transform="translate(0)"/><path class="cls-42" d="M361.61,69.28,363,68c2.88.42,3.54,2.65,4.09,5,0,.25,0,.49-.07.74-.4,2.11.76,4.48-1.07,6.36h-.82C363.32,76.69,362.69,72.91,361.61,69.28Z" transform="translate(0)"/><path d="M170.34,511q4,5,0,10Z" transform="translate(0)"/><path class="cls-43" d="M485.15,114c-6-.43-12.21,1.3-18.17-1C473,113.48,479.18,112,485.15,114Z" transform="translate(0)"/><path class="cls-44" d="M593,311.85l-.18,4.39c-3.1-1.22-3.54-3.3-2-6l1.17-2.37C593.66,308.85,592.93,310.45,593,311.85Z" transform="translate(0)"/><path class="cls-45" d="M466.33,112.94l-12.79,0A18.17,18.17,0,0,1,466.33,112.94Z" transform="translate(0)"/><path class="cls-46" d="M442,70.87c0-1.26,0-2.52,0-3.78,1.31-1.85-.27-4.17,1-6C445.1,64.59,443.68,67.74,442,70.87Z" transform="translate(0)"/><path class="cls-34" d="M466.82,196.11l9.71,1A9.65,9.65,0,0,1,466.82,196.11Z" transform="translate(0)"/><path class="cls-47" d="M367.17,82.5l-.44-1.67a31.35,31.35,0,0,1-.06-7.31,3.32,3.32,0,0,1,.44-.55C368.68,76.14,368.15,79.32,367.17,82.5Z" transform="translate(0)"/><path class="cls-48" d="M221,536.83c.05,3.08,1.14,6.27-.95,9.13C220.19,542.9,219.86,539.79,221,536.83Z" transform="translate(0)"/><path class="cls-49" d="M344,267.92c-.63,3,1.58,6.39-1.46,9C343,273.9,342.07,270.68,344,267.92Z" transform="translate(0)"/><path class="cls-50" d="M334.12,184.06c1.76,3,.63,6.18.79,9.28C333.83,190.32,334,187.19,334.12,184.06Z" transform="translate(0)"/><path class="cls-51" d="M528.05,214l-1.1.39L519.8,214C522.56,212.47,525.3,212.8,528.05,214Z" transform="translate(0)"/><path class="cls-52" d="M247,699.76l6.23.28c-2.65,1.16-5.44,1-8.22.89Z" transform="translate(0)"/><path class="cls-30" d="M535.73,300.11l7.65,0C540.82,301.49,538.27,301.76,535.73,300.11Z" transform="translate(0)"/><path class="cls-26" d="M346.78,265.82c1.75-1.58,4.23-.79,6.13-1.89l.19.19c-.78,4-3.29,3.06-5.83,2.08Z" transform="translate(0)"/><path class="cls-53" d="M454,258.12l3,1.87-4-.05-.81-2.26Z" transform="translate(0)"/><path class="cls-54" d="M443,61.07c-.4,2,.74,4.25-1,6q0-3.32.11-6.63Z" transform="translate(0)"/><path class="cls-50" d="M335.06,195.05c1.75,2,.73,4.28.83,6.45C334.82,199.45,334.88,197.26,335.06,195.05Z" transform="translate(0)"/><path class="cls-55" d="M266,534c.29,1.39.13,2.78-1.42,3-.6.1-.66-1.24-.5-2Z" transform="translate(0)"/><path class="cls-32" d="M574.39,400.1c1.88.15,4-.84,5.57.91C578,401.11,576.11,401.23,574.39,400.1Z" transform="translate(0)"/><path class="cls-32" d="M560.82,398.06c1.78-.13,3.62-.7,5.13.82A8.14,8.14,0,0,1,560.82,398.06Z" transform="translate(0)"/><path class="cls-34" d="M460.06,205.25c0-1.81,0-3.63,0-5.44C461.88,201.63,461.65,203.44,460.06,205.25Z" transform="translate(0)"/><path class="cls-56" d="M479.3,314.21c5.26,1.45,8.46,5.74,12.42,9,2.53.59,3.3,3.13,5.07,4.57,2.8,3.71,5.09,7.75,7.66,11.62,6.84,12.35,10.44,25.63,12,39.62a65.36,65.36,0,0,1-.66,20.94c-3.16,24.06-13.6,44.9-28.35,63.8A115.86,115.86,0,0,1,460,488.88a41.38,41.38,0,0,0-10.44,9.87c-9.93,13.38-18.95,27.29-24.9,43-.7,1.84-.93,5.13-3.45,4.73-2.18-.35-1.35-3.46-1.38-5.28-.11-5.63.18-11.27.31-16.9.16-14.35,5.56-27.16,11.57-39.82,5-10.52,6.3-21.91,8-33.28,2.71-17.69-3.58-33-11.19-48.14-1.19-2.44-2.06-5.07-4-7.07,1.8,3.09,3.29,6.35,5,9.51,11.77,25.35,12.61,51,1.85,76.84-4.41,10.61-8.76,21.2-10.88,32.56a4.45,4.45,0,0,1-1.62,3c-2.6,8.66-2.85,17.67-3.42,26.55-2.17,33.86-3,67.75-1.32,101.66.42,8.57-.11,16.87-7.09,23.21-2.77,2.52-6.89,3.12-9.08,6.44a8.39,8.39,0,0,0,0,5.53.53.53,0,0,0,.17.67c5.54,8.81,5.92,17.06,1,22.92a14.1,14.1,0,0,1-3.27,3c-14,8.55-28.39,16.11-44.58,19.53a28.43,28.43,0,0,1-14.81-.47c-7.8-2.52-10.42-5.51-9.21-13.57,1.31-8.71,3-17.67,11.06-23.41,2.95-3.32,6.89-3.87,11-4.13,2-.13,3.94.26,5.19.14-6.09-1.7-12.11,1.46-18.39,3.06-7.36,4.92-10.81,12.13-12.1,20.62-.22,1.41.35,3.4-1.28,4-1.48.55-2.7-1-3.86-1.87a9,9,0,0,1-4-6.59C313.66,692.61,325,672.35,340,671.78c1.59-.83,3.47.21,5.05-.76l.09,0a2.73,2.73,0,0,1,2.4-1.07,28.52,28.52,0,0,0-14.8.83c-11.92,4.31-20.55,16.62-20.95,29.8,0,1.25.73,3-.52,3.68-1.5.84-2.71-.72-3.88-1.52-4.1-2.81-4.39-7.09-4.26-11.49,1.92-12.95,15.69-26.11,28.55-27.3-10.7.16-20,6.22-25.67,16.59-1.35,2.45-1.91,5.35-4.14,7.3-1.17,1-.19,3-2.1,4.13-3.66-3.37-3.16-7.56-2-11.69,1.41-5.16,4.19-9.69,7.2-14.08,1.12-1.62,2.16-3.3,3.23-5,1.89-5.74,6.58-8.28,11.89-9.24,6.05-1.09,12.17-.87,17.91,2.13s11.63,6.33,17.67,9.05c7.64,3.07,18-.31,24.41-7,8.78-9.16,9.77-20.18,8.19-31.68-5.16-37.62-10.58-75.21-17.9-112.49-1.38-7-2.41-14.15-4.08-21.09-3-12.48-1.13-24.47,2.26-36.46.39-1.39,1.2-2.7.84-4.89-4.28,12.26-7.53,23.84-4.87,36.6C374.14,532.34,381,579,388,625.59c2.59,17-4,30.16-18.07,36.37-3.53,1.56-7.19,2.69-11.15,2-5.11-1.56-9.51-4.56-14.15-7.08-4.36-2.37-8.6-5-13.53-6.07-6.64-1.42-12.9-.53-18.25,3.89-2.78,2.3-5.58,4.6-8.19,7.1-6.39,7.08-11.17,14.91-10.87,24.86.12,4.15-2.33,5.49-5.69,6.22-11.24,2.45-22.75,2.58-34.13,3.82l-2,.25c-2.29,1.12-4.88-.21-7.18.84L243,698c-2,1.08-4.23-.15-6.21.81-8.84.41-16.47,5-24.76,7.26-7.18,2-14,5.18-21.74,4.9-6.26-.22-10.61-3.49-14.2-8.07-2.05-2.62-1.57-5.75-.25-8.54,6-12.76,15.61-22.33,27.77-29.07,7.36-4.09,13.76-.18,19.52,4.6,1.25,1.06,2.88,1.61,4.09,2.88-.72-1.32-1.88-2.41-2.11-4-1.2-1.94-3.57-3.84-.13-5.87a24.85,24.85,0,0,1,13.13.6c-1.06-.85-3.19-.85-4-2.72-8.19-5-16.91-9.09-23.82-16.13-6.55-6.67-9.74-14.42-10.46-23.55-1.12-14,2.38-27,8.43-39.48,3.9-8.07,8.48-15.79,11.7-24.21,1.43-3.73,1.68-7.7,3.12-11.37,1.2-2.26-.24-4.84.88-7.11.85-8.24,4.91-14.27,12.39-18,3-1.46,5.86-3.14,8.9-4.45,5-2.15,8.09-.69,10.18,4.37,4.45,10.82,6.85,22.17,8.65,33.66.94,6.07,3.4,11.11,8.49,14.6,12.73,8.72,22.79,19.69,29.16,33.87,2.2,1.35.26,5.63,4.11,5.82-.82-5.38-2.15-10.61-5.24-15.17-6.62-9.77-13.08-19.7-23.69-25.83-9.6-5.54-11-14.39-9.55-24.24a60.2,60.2,0,0,1,1.85-7.25c.38-1.42,1-2.07,2.82-1.88,10.28,1.07,14.59-1.25,18.31-10.32a40.57,40.57,0,0,0,2.9-20.95c-1.56-12.36-3-24.82-3.1-37.25-.22-18.62,3.65-36.27,15.65-51.43,6-7.56,11.64-15.46,14-25.12.41-1.66,1.34-3.44,3.25-3.26,2.27.21,1.79,2.42,1.9,4s0,3,0,4.49c0,3.56.75,6.7,4.75,7.8s7.52.91,10.33-2.7a21.31,21.31,0,0,0,4-8c3.36-13.66,8.08-27.08,5.94-41.6-.93-6.33-3.46-7.94-8.85-4.48-1.25.81-2.35,2-3.7,2.5-3,1.17-5.05-.44-4.09-3.25,4.57-13.36,9-26.83,17.56-38.38.18-.24.59-.3.88-.45,3.58,2.69,6.57,6.08,10.31,8.56,14.53,10,30.87,14.93,48.1,17.45,3.3,1,6.7.33,10.05.58a9.81,9.81,0,0,1,1.53.17,9.59,9.59,0,0,0,6-.07c3.25-.13,6.5-.48,9.71.32a4.83,4.83,0,0,1,2,1.35c1.36,2.05,2.46,4.42,4.88,5.45,4,1.71,4.08,4.6,2.89,8.17-.88,2.65-1.77,5.43.43,8s5.23,3.48,8,4.86a92.81,92.81,0,0,1,13.24,7.94c5.8,4.19,8.52,3.36,11.16-3.35.37-.93.7-1.87,1.1-2.79,2.08-4.5,4.2-9,6.29-13.48,2.44-5.25,1.59-8.54-3-12.11-2.61-2-4.92-4.43-7.7-6.25a15.79,15.79,0,0,0-3.64-2.28c-3.47-2.86-1.57-5.88-.25-8.88C475.08,318,476.63,315.46,479.3,314.21Z" transform="translate(0)"/><path class="cls-57" d="M352.05,300c-1.79-6.2-3.08-12.61-5.54-18.54-1.56-3.75-.86-7.34-1.31-11-.26-2.15,2.38-1.87,3.16-3.24,6.33-1.59,7.73-.67,7.12,5.45s1.76,10.27,6.62,13.44a76.35,76.35,0,0,0,24.95,14.29c13.61,5.82,27.64,9.33,42.61,8.29,5.47-.38,10.94-.67,16.21-2.25A13.57,13.57,0,0,1,459.12,310c5.65,5.74,5.21,10.64-1.43,15.81-5.43,4.14-12,5-18.4,6.4-2,.24-4.07-.06-6,.65-.51.1-1,.17-1.53.22-4.44.14-8.88.07-13.32-.05a20.22,20.22,0,0,1-2.33-.13c-1.72-.59-3.53-.45-5.3-.7-17.22-2.29-33.5-7.3-48.21-16.81a37.32,37.32,0,0,0-5.06-4.59A12.34,12.34,0,0,1,353,303,4.06,4.06,0,0,0,352.05,300Z" transform="translate(0)"/><path class="cls-58" d="M353,303c1.88,4.88,6.34,7.46,9.74,11a2.3,2.3,0,0,1-1.83,1.18c-3.46-2.6-7.17-4.95-9.13-9.07C353.17,305.49,352.77,304.14,353,303Z" transform="translate(0)"/><path class="cls-59" d="M305.85,608.87c-.26,1.63-1.08,2.18-1.9.5a51.87,51.87,0,0,1-2.21-6.32C304.48,604,303.22,607.82,305.85,608.87Z" transform="translate(0)"/><path class="cls-48" d="M224,539c0,2.41.48,4.87-.88,7.11l0-7.09Z" transform="translate(0)"/><path class="cls-56" d="M590.87,310.2a9.74,9.74,0,0,0,2,6c1.65,7,4.78,13.43,8.26,19.58a234.86,234.86,0,0,1,19.64,46.54,26.08,26.08,0,0,1-2,12.28c-2.82,2.6-6.49,3.58-9.85,5.16-6.62,1.24-13.26.91-19.91.16l0,0c-2.25-1.19-4.81.25-7.06-.88l-1.71-.16c-2-1.1-4.37.37-6.32-1l-.37-.18-.41.06-.06.06q-6.08-1-12.15-1.85l-.39-.14-.4,0c-5-1.41-10.08-.85-15.14-1-5.69.16-11.38.13-17.07,0l-4.94,0L519,393a7.35,7.35,0,0,1-1.3-5.19c1.48-18.35-4.85-34.45-14.26-49.66-1.73-3.87-4.46-7.09-6.82-10.54-1.74-1.56-3.24-3.26-3.52-5.71,3.67-3.86,7.85-.16,11.74-.8,15.13,5,27.4,15.36,41.58,22.14a56.34,56.34,0,0,0,14.5,5c1.58,1.05,2,2.26,1.16,4.16-2.46,5.57-.52,10.52,2.94,14.85,3.63,4.54,7.64,8.77,11.58,13,.94,1,2.25,2.54,3.71.8,1.25-1.47-.42-2.33-1.25-3.25-3.46-3.83-6.83-7.74-10.44-11.4-4.05-4.1-4.92-8.66-3.47-14.17,2.85-10.8,2.09-21.74.84-32.7-.31-2.67-2.48-4.72-2.12-7.52-.63-6.34-5.81-11-6.2-17.55-.09-1.51-2-1.56-3.29-1-2.58,1.09-5.11,2.27-7.67,3.41L543,298.07a12.52,12.52,0,0,1-7,0c-3-2.38-3.42-6.19-4.9-9.38s-3.3-4.12-6.71-3.05c-4.33,1.37-8.13,3.74-12.16,5.68-13.13,6.32-27.19-2.49-27.33-17.09-.05-5.89,2.89-9.37,8.69-10.21a25,25,0,0,1,11.31,1c3.34,1.07,6.74,1.83,10.13.06a6.86,6.86,0,0,1,6.93.68,27.6,27.6,0,0,0,7.11,3.31c5.79,1.63,8.22.84,11.81-3.91a11.4,11.4,0,0,1,12.07,0c2,3,1.51,5.9-.14,8.81-1.41,4.16-.37,6,3.92,6.83a4,4,0,0,0,1,.13c2.11-.11,4.24-.07,6.81-.24-3.92-2.77-11.71.52-11.19-7.76.9-1.48,1.53-3,.79-4.76-.2-7.61,4.76-12.05,10.15-16.07,3.44-2.57,7.59-4.32,8.92-8.94,3.4-9.52,3-11.73-3.55-18.26,1.81,4.08,6.36,6.83,5.14,12-.46,1.59-.73,3.22-1.07,4.84-.31.66-.69,1.29-.94,2-3,4.12-7.32,6.45-11.91,8.36a3.85,3.85,0,0,1-3.76-.22,41.43,41.43,0,0,1-10.31-6.9c-2.59-2.35-4.25-5.2-4-8.76A21.46,21.46,0,0,1,550,221.06c1.26-1.93,2.55-3.84,3.77-5.79,5.56-8.86,10.53-9.46,18-2.17,3.08,4.61,7.89,7.93,10,13.31-.21,12.63-.3,25.26-.68,37.89C580.57,280.43,584.86,295.49,590.87,310.2Z" transform="translate(0)"/><path class="cls-56" d="M419.63,656.76c-2.09.4-2.44-.63-2.44-2.51,0-22.82-.16-45.65-.08-68.47,0-4.67,2.25-8.65,5.73-11.82a105.38,105.38,0,0,1,43.7-24.2,38.11,38.11,0,0,1,7.89-1.13c12.27-.74,17.92,7.13,13.37,18.62A84.4,84.4,0,0,1,477.61,585c-3.05,4.29-4.55,8.7-3.61,14,1.43,8.1-.78,14.89-6.88,20.78a225.87,225.87,0,0,0-15.66,17.46c-6.92,8.23-13.42,16.92-25.49,17.67C424.26,656.83,421.65,655.8,419.63,656.76Z" transform="translate(0)"/><path class="cls-56" d="M505,635.9c12.38,4.06,19.21,12.91,21.76,25.38a22.27,22.27,0,0,1,.37,5.41c-.07,1.46-.4,3.21-2.27,3.36s-3-1.08-2.92-3.08c-2.89-4.73-4.36-10.22-8.39-14.39-3.88-4-8.14-7-13.72-7.84-3.27-1.47-6.71-.77-10.09-.93,3.34.22,6.75-.47,10,.85a27.07,27.07,0,0,1,20.72,25.1c.07,1.13-.21,2.31.41,3.38-.79,7.75-3.66,11.64-9.43,13.1-3.07.77-4.11-.25-3.33-3.27a4.15,4.15,0,0,0,1-3.74,33.48,33.48,0,0,0-1.05-12.4c-.42-5.45-3.24-9.46-7.58-12.54a25,25,0,0,0-16-4.86,24.75,24.75,0,0,1,15.92,5c5.8,3.79,7.42,9.8,8.5,16.08,0,1.87.59,3.85-.94,5.46-2,9.84-8.4,14.38-18.13,15.34-9.93,1-19.56,1.58-27.52-6.18a10.55,10.55,0,0,0-8.39-2.58c-12,1.23-24,2.81-35.95,4.26-3.8,1.46-7.73.43-11.59.58-2.68.11-2.87-2.84-4.37-4.2l-1-1.2c-.94-1.56-2.37-3-.94-5,5.9-3.82,12-7.38,15-14.3,1.38-3.11,5.49-2.64,7.85-4.67,3.62-2.57,8.18-1.3,12-3h0c1.64-.68,3.22-1.67,5.08-1.49,6.26.6,12.25-.85,18.23-2.38,5.76-2.28,9.26-7.31,13.63-11.27,6.42-5.81,13.14-10.74,22.44-9.91,3,.27,6,.71,7.49,3.9-5.21,2.45-11.27,1.39-15.47,3.63C491.87,636.34,498.18,633.58,505,635.9Z" transform="translate(0)"/><path class="cls-60" d="M429.21,401.86c15.39,24.51,15.63,50.58,6,76.7-5.55,15.11-12.58,29.64-15.14,45.72-.57-2.11.83-4.61-1.29-6.41,1.26-12.07,5.55-23.26,10.42-34.21,11.36-25.56,10.91-51-.36-76.41-.33-.76-.57-1.56-.85-2.34C427.52,403.54,426.62,402,429.21,401.86Z" transform="translate(0)"/><path class="cls-61" d="M504,337c9,13,14.57,27.16,15.26,43.05.18,4.28-.16,8.6-.26,12.9-1.5-.61-2-.14-2.07,1.49-.1,1.85,1,4-1.13,5.47.69-21.34-2.48-41.87-12.83-60.88C502.31,337.88,502.23,337,504,337Z" transform="translate(0)"/><path class="cls-62" d="M458.33,651.09a30.3,30.3,0,0,1-13,2.86,39.13,39.13,0,0,0-10.3,1c3.83-3.78,8.65-1.28,13-2.06C451.45,652.41,454.68,650.54,458.33,651.09Z" transform="translate(0)"/><path class="cls-62" d="M435,655c-3.82,1.75-7.92,2.38-12,3-.8-1.28-2.18-.9-3.33-1.17a9,9,0,0,1,6.33-1.89C429,657.44,432,653.76,435,655Z" transform="translate(0)"/><path class="cls-63" d="M400.09,676.9c.31,1.68.63,3.36.94,5l-2-1C399.14,679.52,398.52,677.91,400.09,676.9Z" transform="translate(0)"/><path class="cls-63" d="M397.87,681.26a4.42,4.42,0,0,1,0-5.53C397.9,677.58,397.88,679.42,397.87,681.26Z" transform="translate(0)"/><path class="cls-56" d="M361.61,69.28c3.28,2.91,3.54,6.81,3.54,10.79-1.75,4.24-.09,8.53-.24,12.79-.48,3.59-2.45,6.56-4.11,9.66,1.92-2.38,2.21-5.81,5.14-7.48.93-2.5,3-2.74,4.72-1.54,1.95,1.33-.6,2.43-.82,3.72a19.3,19.3,0,0,1-.91,2.72c-.55,1,0,2.26-.28,2.55a6.46,6.46,0,0,1,1.43-1.39c4.53-7.53,11.32-12.81,18.11-18.08a4.77,4.77,0,0,1,3.76-.84c3.69,2.56,1.4,4.69-.83,6.11-3.91,2.49-6.5,6.16-9.51,9.47-.83.91-2.29,2.08-.74,3.32,1.24,1,2.56,0,3.46-1a54.91,54.91,0,0,0,4.82-7c2-3.22,4.4-5.86,8.58-6.36-.36-2.08-4.06-3-1.67-5.55h.08c3.4.17,6.68.18,9.82,2.26,2.85,1.88,6.4.83,9.6.24,2.74-.5,5.2-.37,7.39,1.49.29,2.77.51,5.43-3.68,3.46a1.8,1.8,0,0,0-2.5.93,4.38,4.38,0,0,0-.35,3.83c.53,1.26,1.68.56,2.59.32,5-1.28,8.74.47,11.66,4.48a72.86,72.86,0,0,0,8.09,13.49c1.21,1.69,3.16,3.33,1.79,5.68a5.48,5.48,0,0,1-6.32,2.72c-2.24-2.17-2-5.34-3.2-7.92-.33-1.57-.19-3.39-2.21-4.05a7.55,7.55,0,0,1-1.05-.64,8.28,8.28,0,0,0-2.47-1.75,5.44,5.44,0,0,0-4.84.35c-2.59,1.46-3.74,4.86-7.12,5.24-2.37-1.65-1.13-4.44-2.08-6.54-.65-2.27-1.85-4-4.32-4.57-.42-.11-.84-.25-1.25-.39a9.87,9.87,0,0,0-4.38-.47,5.77,5.77,0,0,0-4.62,2.85,11.49,11.49,0,0,1-2.22,2.24,11.37,11.37,0,0,0-2.8,2.17,7.8,7.8,0,0,0-1.09,2.13,9.64,9.64,0,0,0,0,4.5c-.42,2.46.65,4.39,2.19,6.16.84,2.36,2.13,4.83-1.46,6.13-10.64-3.78-10.64-3.78-14.72-2.8,3.72-1.5,8.15-.1,12.43,2.26,1.61,1.56,3.25.42,4.87,0,1.49-.19,3,0,4.43-.67a8.08,8.08,0,0,1,1.88-.71,2.77,2.77,0,0,1,1.33.25c2.62,2.95,4,.66,5.5-1.27a8.73,8.73,0,0,0,2.41-2.95,7.73,7.73,0,0,0,1.11-4.9,1.68,1.68,0,0,1,.77-1.08c1.77-.43,2.51.81,3.29,2,1.37,4.13,3.88,3.91,6.89,1.79,4.66,1.67,5,2.51,2.49,6.75a11.34,11.34,0,0,1-3.7,2c.34.39.51-.15.78-.12.95-.36,1.8-1,2.88-.82a7.34,7.34,0,0,1,2.41.92,4.68,4.68,0,0,0,4.14.23l1.14-.54a16.69,16.69,0,0,1,3.47-1.77c8-5.61,16.73-9.23,26.56-9.92,3,.66,3,.66,2.93,1.77-4.22,1.26-8.39,2.62-11.68,5.76-5.53,3.92-9.79,8.79-12,15.36a8.24,8.24,0,0,0,1.37,8.39,72.91,72.91,0,0,0,22.79,19c3.65,1.89,7.82,3,11.9.53,3.25.34,3.26,2.7,2.94,5a18.21,18.21,0,0,1-4.32,9.26c-2.63,3.14-5,6.46-7.88,9.43L467,189c-4.3,1.32-7.25,4.86-11.17,6.82-3.34,4.12-8,4.46-12.8,4.57-1.79.05-3.58.05-5.36,0-9.2-1.53-17.31-5.76-25.15-10.51-5.51-3.34-6.45-9-6.24-14.84a64.35,64.35,0,0,1,.63-7.45c.48-3.14-.89-4.27-3.86-4.17a43,43,0,0,0-6.4,1,6.47,6.47,0,0,1-6-1.71c-4.37-4.2-3.44-15,1.45-18.51-4.62.53-7.44,3.87-11,7.21,2.25,0,3.41-2.29,5.25-1.17s1.64,3.13,1.6,4.93c-.09,4.21.92,7.82,4.6,10.42a10.88,10.88,0,0,1,3.65,5.28c4.06,10.9,8.85,21.55,11.32,33a18,18,0,0,0,3,7.3c3.3,6,8.27,10.38,13.59,14.46,2.83,2,5.37,4.44,8.43,6.17,4.35,2.46,8.91,2.44,13.52,1.16a5.24,5.24,0,0,0,4.25-4.93c.15-2.61-1.7-3.32-3.73-3.86-1.71-.46-3.3-1.43-3.46-3.21-.62-7-2.07-14.3,3.5-20.31a31.56,31.56,0,0,0,6.33-2.23c1.16-.63,2.55-1.7,3.88-.11,2.2,2.61,1.94,5.7.59,8.27-1.93,3.66-.26,5.7,2,8.24,2.52,2.81,8.13,3,7.68,8.23-.58,6.82-3.11,12.93-8.37,17.55-2.23,2-4.79,3.54-7.2,5.29A9.23,9.23,0,0,0,447,248c-3.51,3.08-7.86,3.12-12.14,3.36-7.26-.73-12.65-5.23-18.36-9,7.08,5.19,13.85,11.28,23.82,8.67,2.9-.35,5.57-2.76,8.71-1,2.87,3,1.17,5.73-.76,8.28C447,260,445.41,261.47,444,263c-2.27,3.73-6.24,4.63-10,5.72-8.72,2.55-17.26,1.24-25.68-1.54-7.86-3.3-13.13-9.38-17.35-16.47-2-3.43-3.6-7.12-5.39-10.68-7.64-15.21-7.75-18-1.35-34a31.06,31.06,0,0,0-2.26,6.21c-.3,1-.58,2-1.78,2.1-1.43.13-2-1-2.47-2.06a15.14,15.14,0,0,1-1-6.35c-.06-4.16.1-8.31-.09-12.46,0-.67.09.14-.14-.48-.15-.41-.54-.35-.78.09a51.83,51.83,0,0,0,.21,14.72c.38,3.46,1.76,6.58,3.16,9.72.84,1.88,1.84,4.15-1.39,5.06-1.78-.27-2.48-1.69-3.25-3a20.86,20.86,0,0,0-1.24-3.42c-1.38-2.93-2.52-6-3.81-8.94a13.43,13.43,0,0,1-.93-3,8.58,8.58,0,0,0,1.23,3.84c.93,3.08,2.56,5.86,3.74,8.84a9.86,9.86,0,0,1,.74,2.61c.78,1.64,1.93,3.08,2.76,4.7,4.1,8.12,8.32,16.17,12.19,24.4a38.7,38.7,0,0,0,17.54,18.24c8.67,3.11,17.45,4.54,26.61,2.28a36.39,36.39,0,0,0,8.23-3.29c2.41-1.28,4.83-1.95,7.45-.63l2.86,5.91L461.08,295c2.31,1.64,1.64,3.14-.19,4.61-2.19,1-4.3-.06-6.45-.24-4.44-1.17-8.77-1.52-13.09.75-2,1.05-4,2.19-4.68,4.23-1.39,3.91-4.3,4.51-7.87,4.7-14.1.73-27.36-2.56-40.21-8-9.45-3.58-18.45-8-26.16-14.66a8.81,8.81,0,0,1-3.36-5.83c-1.21-5.88-4.34-11.33-3.92-17.57a196.09,196.09,0,0,0-7-23.24C344.19,227,340.2,214.24,338,201c-1.14-2,.14-4.3-.88-6.29l-.06-1.69c-1.36-3.39.2-7-.92-10.44,0-18.38,3-36.36,7.63-54.09.82-3.17-.16-5.48-2.23-7.59-3.26-3.31-6.58-6.57-9.87-9.85-3.44-4.12-6.27-8.54-7-14,.54-3.32-.28-6.86,1.64-9.95a.43.43,0,0,1,.39,0,7,7,0,0,1,.47.85c2.6,2.67,2.34,6.39,3.57,9.56,2.15,6.91,7.38,11.31,13.25,14.59,5.1,2.86,4-2.73,5.28-5,.71-3.3.23-6.63.36-9.94a22.33,22.33,0,0,1,.36-4.62c.55-2.11,1.24-4.23-.28-6.25a21.06,21.06,0,0,0-2.66-2.92c-7.08-7-10.59-15.26-8.15-25.37a26.92,26.92,0,0,1,3.09-10c1.25-1.48,2.57-2.92,3.75-4.46,2.61-3.41,5.27-4,8.13-.32a26.87,26.87,0,0,1-.75,12.23C351.13,61.87,353.1,64.69,361.61,69.28Z" transform="translate(0)"/><path class="cls-64" d="M487.85,177.7a3.57,3.57,0,0,0-2.06,4.05c1.17,9.4,1.16,9.4-7,13.2-2.46,0-4.91,0-7.36,0-4.28.08-5.91-1.75-4.4-5.94l-.07.08c3.8-3.45,6.59-7.78,10-11.56,3.84-4.27,2.24-9.78,4-14.48,7.88-7.92,14.51-16.61,17.36-27.71.6-2.37,1.5-4.75,3.68-6.28,4.79.46,5.65,4.15,6,7.82.64,6.36-.17,12.61-3.42,18.22C499.85,163.25,494.86,171.24,487.85,177.7Z" transform="translate(0)"/><path class="cls-65" d="M454.18,123.12a59.13,59.13,0,0,1,17.8-7,34,34,0,0,1,13-.08c1.76,1.57,3.94.88,5.95,1.12.71,1.21,2.77,1.87,1.92,3.68-.76,1.65-2.6,1.38-4,1.26a43.39,43.39,0,0,0-32.42,10.21,6.64,6.64,0,0,1-4,1.78,3.71,3.71,0,0,1-3.42-1.67,2.92,2.92,0,0,1,.37-3.69C450.91,126.85,452.56,125,454.18,123.12Z" transform="translate(0)"/><path class="cls-66" d="M480.92,163c2.73,11.57-5.48,18.19-11.68,25.7a2,2,0,0,1-2.3.34c1.18-4.16,4.66-6.66,7.16-9.85,2.06-2.63,3.93-5.34,4.55-8.65.39-2.06.81-4.34-1.69-5.62C478,163.79,480.15,164.83,480.92,163Z" transform="translate(0)"/><path class="cls-56" d="M216.19,361.06c.87-2.82,1.39-5.81,2.66-8.44,3.34-6.91,11.48-7.62,16.1-1.53a27.3,27.3,0,0,1,5.2,13.28c1.44,11.5,3.38,23,2.83,34.63-4.37,25.37-16.71,47.54-28.13,70.1-5.86,11.6-11.4,23.41-13.9,36.26-3.28,16.86.75,32.66,8,47.85,5.68,8.12,3.54,15.59-1.56,23.06-1.75,2.56-2.65,5.71-3.93,8.59-1.2,2.7-2.4,5.41-3.94,8.9a136.05,136.05,0,0,1-13.37-25.45,223,223,0,0,1-12-39.38c-3.08-20.49,3.87-38.53,12.93-56.37,8.65-17.06,17.93-33.85,24.66-51.83a49,49,0,0,0,3.38-12.48c1-1.64-.28-3.69,1-5.29a.43.43,0,0,0,.06-.61c1.13-3.39-.47-7,1-10.38a.53.53,0,0,0,0-.68,21.93,21.93,0,0,0,0-9.37l0,.06c-1.52-4.69.24-9.6-1-14.31a.49.49,0,0,0-.06-.66C214.71,365,214.59,363,216.19,361.06Z" transform="translate(0)"/><path class="cls-64" d="M163.06,690.93c-.65-15,13.16-31.27,27.93-32.8,3,1.31,6.49,1.51,9.06,4.6-6.63,5.45-13.51,10.62-19,17.35-3.56,4.41-7.23,8.82-8.73,14.34-1.3,4.82-3.41,3.51-5.74,1.26A35.94,35.94,0,0,1,163.06,690.93Z" transform="translate(0)"/><path class="cls-67" d="M176.93,653.32c.77.25,1.55.44,2.29.75,2.66,1.1,3.56,2.22.45,4.18a47.18,47.18,0,0,0-16,17.42c-1.94,3.47-3.71,7.08-3.51,11.26-.77,1.53,1,3.83-1.26,4.82-1.75.75-2.53-1-3.65-1.87-3-11.28,1-21.41,5.78-31.12C164.21,652.26,171,653.23,176.93,653.32Z" transform="translate(0)"/><path class="cls-68" d="M150.14,659.1c1.77-3.4,2.39-8,7.93-7.39,2.34.26,4,.34,1.77,3.38-4.45,6-6.26,13.11-7.81,20.29-.35,1.59.17,4.08-2.91,3.4C146.54,672.07,149.48,665.64,150.14,659.1Z" transform="translate(0)"/><path class="cls-69" d="M234.12,660.8c1.87.58,3.74,1.19,5.62,1.74,1.28.37,2.89.59,2.07,2.46-.65,1.5-1.93.73-2.94.23A23.56,23.56,0,0,0,225,662.92C227.59,660.23,231.55,663.54,234.12,660.8Z" transform="translate(0)"/><path class="cls-70" d="M225.14,668.79a13,13,0,0,1,4.68,5.45c.08.18-.63,1-.87,1-3.06-.53-4.08-3.32-5.79-5.36A2,2,0,0,0,225.14,668.79Z" transform="translate(0)"/><path class="cls-52" d="M236.82,698.78c2-1.08,4.1-.86,6.21-.81,0,.31,0,.62-.05.93Z" transform="translate(0)"/><path class="cls-71" d="M304.68,661.82c9.21-13.42,21.06-16.44,35.21-8.92,6.14,3.27,12.23,6.61,18.35,9.92-.77,1.3-2.19,1-3.35,1.36-5.16-2.6-10.32-5.19-15.47-7.81-12.77-6.49-21.4-5.14-31.23,4.89C306.68,659.33,306,662.28,304.68,661.82Z" transform="translate(0)"/><path class="cls-72" d="M301.89,687.86c3.86-16,20.8-28.39,33.83-24.63.18,1.55-1.06,1.49-2,1.55-15.62,1.08-23.31,11.77-29.54,24.27-.37.73-.72,1.47-1.08,2.21C302.94,690.05,303.24,688.65,301.89,687.86Z" transform="translate(0)"/><path class="cls-73" d="M336,689.05c7.43-5.86,15.73-4.88,24.17-3-7.32,1.41-15.1.23-22,3.9Z" transform="translate(0)"/><path class="cls-74" d="M332.76,670.8c6.15-3.13,12.38-1.79,18.61-1-2,1.6-4.1,1.57-6.21,1.25C341.08,668,336.88,671.55,332.76,670.8Z" transform="translate(0)"/><path class="cls-75" d="M509,665.92a26.9,26.9,0,0,1,.07,13.31c-.17-1.18.14-2.52-1.14-3.31,0-1.94-.06-3.88-.08-5.82C507.72,668.57,506.24,666.66,509,665.92Z" transform="translate(0)"/><path class="cls-63" d="M402,683.14c4.13,6.42,10.54,2.84,16,3.62C411,689.86,403.94,688.25,402,683.14Z" transform="translate(0)"/><path class="cls-52" d="M244.83,697.81c2.29-1.17,4.76-.84,7.18-.84C249.8,698.77,247.26,697.85,244.83,697.81Z" transform="translate(0)"/><path class="cls-74" d="M345.07,671c-1.55,1.19-3.31.92-5.05.76C341.53,670.41,343.33,670.92,345.07,671Z" transform="translate(0)"/><path class="cls-76" d="M524,215.86c7,1.25,7.7,2.61,4.4,8.45-4.73,8.36-6.41,16.83-1.29,25.67,4.15,4.79,9.68,8.16,13.54,13.26a3.41,3.41,0,0,1-.27,2.24c-1.3,3.68-4,5.13-7.72,4.46-5.22-.94-10.16-2.58-13.52-7.13-8.47-9.13-12.3-19.18-6.56-31.34,1.55-3.29,2.56-6.84,3.92-10.23S520.06,215.7,524,215.86Z" transform="translate(0)"/><path class="cls-74" d="M519.1,262.81c3.7,1.83,7,4.39,11.12,5.48s7.55.86,9.53-3.55a1.74,1.74,0,0,1,1.43,1.4c-1.4,5.92-6,5.35-10.31,4.84a22.4,22.4,0,0,1-10.37-4.51c-1.7-1.23-3.39-2-5.49-1.34C515.79,263.33,518.33,264.62,519.1,262.81Z" transform="translate(0)"/><path class="cls-30" d="M536,298.1l7,0A6,6,0,0,1,536,298.1Z" transform="translate(0)"/><path class="cls-77" d="M499.93,645c1.95-1.72,3.91-.47,5.57.33,9.11,4.42,14.69,11.62,16.42,21.69-1.84,1.8-.46,4.16-1.06,6.17-.92-3.3-1.66-6.67-2.77-9.9-3.09-9-9.68-14.58-18.1-18.35Z" transform="translate(0)"/><path class="cls-78" d="M505,635.9c-7.81-.41-15.22,1.72-22.75,3.43,5.78-4.62,12.65-5.33,19.66-5.52Z" transform="translate(0)"/><path class="cls-19" d="M216.17,367.67c1.37,4.69.82,9.52,1,14.31C214.81,377.34,216.47,372.44,216.17,367.67Z" transform="translate(0)"/><path class="cls-19" d="M217.12,392c.1,3.5.39,7-1,10.38C216.43,398.88,214.91,395.26,217.12,392Z" transform="translate(0)"/><path class="cls-19" d="M217.11,381.92a13.6,13.6,0,0,1,0,9.37C217.14,388.17,217.12,385.05,217.11,381.92Z" transform="translate(0)"/><path d="M214.18,367c0-2,0-3.94-.05-5.91.31,0,.61,0,.92,0a8.1,8.1,0,0,1,0,6C214.75,367,214.46,367,214.18,367Z" transform="translate(0)"/><path class="cls-19" d="M215,367c0-2,0-4,0-6l1.14.05c0,2-.05,4-.08,5.95Z" transform="translate(0)"/><path class="cls-19" d="M216.11,403c-.09,1.81.32,3.7-1,5.29C215.23,406.44,214.34,404.46,216.11,403Z" transform="translate(0)"/><path class="cls-50" d="M336.14,182.62c1.19,3.4.71,6.95.92,10.44C334.88,189.74,336.41,186.1,336.14,182.62Z" transform="translate(0)"/><path class="cls-50" d="M337.12,194.75c1,2,.71,4.18.88,6.29C336.2,199.15,337.25,196.87,337.12,194.75Z" transform="translate(0)"/><path class="cls-76" d="M528.12,247.67c-1.64-1.22-.56-3.18-1.26-4.66a24.15,24.15,0,0,1,.09-10,45.75,45.75,0,0,1,7.68-13.31c4.37-5.1,6.77-5.64,13-2.58,2,2.84.49,5.42-.94,7.69-7.89,12.56-5.2,17.3,7.44,25.76.55.37,1.22.53,1.81.85,3.44,4.67,1,10.57-4.84,11.69a14.14,14.14,0,0,1-8.67-.91,74.43,74.43,0,0,1-9.47-6.29C530.33,253.8,528.32,251.26,528.12,247.67Z" transform="translate(0)"/><path class="cls-79" d="M555,251.93c-5.81-1.86-9.85-6.09-12.86-11s-.13-9.81,2.14-14.45c1.46-3,4.65-5.41,3.34-9.39,2.08.53.7,3.13,2.35,3.92-1.06,2.05-2,4.14-3.18,6.15-6.12,10.8-2.92,14.86,7.26,21.77a40.31,40.31,0,0,0,3.83,2.08C557.18,252.18,555.91,251.43,555,251.93Z" transform="translate(0)"/><path class="cls-80" d="M528.12,247.67c2.78,6.4,8.64,9.56,13.94,13.31a3.61,3.61,0,0,1-2.14,2.15c-3.28-2.72-6.61-5.39-9.82-8.18a9,9,0,0,1-3-5C527.93,249.45,528,248.53,528.12,247.67Z" transform="translate(0)"/><path class="cls-80" d="M527,233l-.09,10A11.56,11.56,0,0,1,527,233Z" transform="translate(0)"/><path class="cls-81" d="M456.89,198.26c-3.43.54-6.23,3.31-9.95,2.78-3.43-.15-7.39,2.38-10-2,6.56.53,13,.36,18.86-3.2Z" transform="translate(0)"/><path class="cls-82" d="M431.92,111.34a21.27,21.27,0,0,1,2.31,8.73c-.13.54-.27,1.08-.4,1.62-.41,3.73-2.5,5-6.06,4.2a3,3,0,0,1-1.22-.87c-1.41-1.78.37-4.4-1.59-6-1.62-1.45-3.36-1.9-5.33-.68-4.24,1-4.88-1.81-4.67-4.86.47-6.51,7-9.68,13.1-6.51a1.44,1.44,0,0,0,.78.22A8.59,8.59,0,0,1,431.92,111.34Z" transform="translate(0)"/><path class="cls-43" d="M485,116.06l-13,.08A17.44,17.44,0,0,1,485,116.06Z" transform="translate(0)"/><path class="cls-83" d="M427.07,125c3.2.86,5.54,0,6.76-3.28.25.89.26,1.91,1.25,2.43a6.24,6.24,0,0,1-3.21,2.71C430.3,126.13,427.48,128.65,427.07,125Z" transform="translate(0)"/><path class="cls-84" d="M464.57,116c-.5-1.38-2.15-.85-2.93-1.77,1.34.12,3-.91,3.86.9C465.56,115.2,464.9,115.67,464.57,116Z" transform="translate(0)"/><path class="cls-85" d="M479.91,307c-.65,1.65-2.05,3-2,4.92-.81,1.42-.42,3.24-1.63,4.57-1.85,2-3.46,2.53-4.93-.31-1.28-4.8-2.68-9.51-6.44-13.13a4.59,4.59,0,0,1-.49-6.66,13.56,13.56,0,0,0,2.38-5.89c.34-.57-.93-.23-.3,0,.12.05.06.19,0,.49a2.84,2.84,0,0,1-1.59,1.78c-1.11.34-2.2.82-2.75-.88s-1.95-3.37-1.75-4.89c.31-2.33-4.64-5.67,1.07-7,6.18-1.46,9.41,0,10.16,5.06.83,5.59,3.79,10.17,6.38,14.93A13.62,13.62,0,0,1,479.91,307Z" transform="translate(0)"/><path class="cls-86" d="M464.88,292.78c.48-1.38,1-2.75,1.58-4.56,2.21,3.5.94,6.33-.88,8.55-2,2.4-1.29,3.52.55,5.58,3.31,3.71,5.82,8,6,13.28-.3,1.88,1.93,2.68,1.88,4.45-.36,2.65-4,5.28,0,7.95.48,1.84-1.76,2.06-2,3.46a6.06,6.06,0,0,1-.79,1.09,2,2,0,0,1-1.91.63,2.9,2.9,0,0,1-1.24-2.54c.41-4.23,2.46-8.27,1.34-12.69-1.29-5.06-3.17-9.71-7.59-13-1.31-1-2.72-1.94-3.21-3.67-.23-1.81,1.68-1.55,2.39-2.45,1-1.27.67-2.58.15-3.91C462.19,294,464.2,294.52,464.88,292.78Z" transform="translate(0)"/><path class="cls-76" d="M435.84,55.51c5.4,4.29,6.1,9.36,3.52,15.69-2.35,5.73-3.77,11.85-5.59,17.8-1.46.7-.27,3.88-2.69,3.32-1.89-.43-3.45-1.73-3.05-4.31a2.47,2.47,0,0,0-2-2.93c-2.64-4-6.48-4.68-10.87-4-2.64.4-6.24,2.5-7.65-.52a8.35,8.35,0,0,1,3.12-10.18c5-3.19,5.65-6,2-10.5-1.58-1.93-.76-4.45-.4-6.73,2.87-3.85,5.69-7.74,8.63-11.54,1.78-2.31,4.24-3.42,7-2.36s2.2,3.84,1.74,6C428.44,50.74,432.46,52.89,435.84,55.51Z" transform="translate(0)"/><path class="cls-87" d="M448.94,265.17c-2.48-.86-4.32.39-6.47,1.47-12.07,6-24.3,7.2-36.57.43.46-.81,1.56-.31,2.07-1,7.53,1.39,14.89,3.8,22.8,2.17,4.79-1,9-3,13.21-5.19C445.12,265,447.91,263,448.94,265.17Z" transform="translate(0)"/><path class="cls-88" d="M449,250c-3.23-.38-5.87,2.06-9.06,1.9-1.45-.91-2.71.2-4.06.37-1.85.23-2.87-.2-1.89-2.29,4.48.3,8.73-.81,13-2Z" transform="translate(0)"/><path class="cls-89" d="M396.06,81.17c-.51,3.69,3.66,3.21,5.47,6.08-9-.46-11.16,6.81-15.07,12.08-1,1.32-1.77,2.9-3.44,3.5-1.47.52-3,.62-4.21-.61-1.42-1.48-.43-2.73.64-3.87,3.64-3.87,6.56-8.47,11.31-11.18,2.23-1.28,2.51-2.92,1.19-5C393,80.61,394.64,81.28,396.06,81.17Z" transform="translate(0)"/><path class="cls-47" d="M365.94,95c-1.23,2.88-2.49,5.75-3.66,8.65-.53,1.31-1.26,2.84-2.72,2.08-1.2-.62-.9-2.41-.21-3.61,1.79-3.13,3.7-6.2,5.56-9.3C365,93.69,365.07,94.56,365.94,95Z" transform="translate(0)"/><path class="cls-90" d="M370.08,101.1c-.55,1.93-.29,4.27-2.62,5.3-.2.09-.82-.2-.82-.33-.12-2.36,1-4.29,2.29-6.13Z" transform="translate(0)"/><path class="cls-2" d="M366.67,73.52l.06,7.32c-.25-.26-.5-.52-.76-.77C366.37,77.9,365.25,75.58,366.67,73.52Z" transform="translate(0)"/><path class="cls-91" d="M474,320.08c-1.15-1.26-2.74-2.34-1.88-4.45.72.76.66,3.6,2.62,1.05,1.16-1.5,2.12-3.16,3.17-4.75.18.93.32,1.88,1.37,2.28C477.94,316.53,476.74,319,474,320.08Z" transform="translate(0)"/><path class="cls-92" d="M493.08,321.88l4,5.09a1.48,1.48,0,0,1-1.18,1.24,18,18,0,0,1-4.16-5Z" transform="translate(0)"/><path class="cls-32" d="M589,400c6.64-.07,13.28.83,19.91-.16C602.27,401.89,595.63,401.57,589,400Z" transform="translate(0)"/><path class="cls-93" d="M582,399.06c2.39,0,4.84-.5,7.06.88C586.64,399.73,584.12,400.76,582,399.06Z" transform="translate(0)"/><path class="cls-32" d="M573.92,397.91c2.13.18,4.35-.25,6.32,1C578.11,398.7,575.78,399.87,573.92,397.91Z" transform="translate(0)"/><path class="cls-94" d="M355.15,263c1.62,5.38,3.19,10.77,4.88,16.12.73,2.33,1.14,4.86,3.18,6.57.28,1.22-.21,1.69-1.41,1.49-5.93-2.91-8.09-6.74-7.56-13.4s.53-6.58-5.88-6.51l-1.09-1c2-.42,4.55.49,5.83-2.08Z" transform="translate(0)"/><path class="cls-39" d="M333.2,66.16c1.63-.1,2.51,1.11,3.56,2,2,1.51,2.14,4,3.22,6,1.19,2.18,2.06,4.9,4,6.16,7,4.55,7.09,11,5.82,18-.87,3.39-.08,6.91-.82,10.31-.42,3.63-2.92,4.16-5.32,2.61-5.82-3.76-11.77-7.6-13.61-15-.64-2.58-1.2-5.18-1.63-7.81.46-5.15-.5-10.36.62-15.49a13.56,13.56,0,0,1,1.41-3.57C331,68,331.48,66.55,333.2,66.16Z" transform="translate(0)"/><path class="cls-95" d="M348.86,97.81c.1-2.3-.29-4.63.54-6.87.88-2.41-.24-4.26-2-5.54a26.2,26.2,0,0,1-10.62-17.21c3-2.87-.34-7.11,2.16-10.09C337,70,343.52,78.18,351.1,85.9a11.8,11.8,0,0,1,0,6.43c-.09,1.58-.19,3.16-.28,4.74-.92,1.64.28,3.63-.88,5.23a1.15,1.15,0,0,1-1.35-.54A8.65,8.65,0,0,1,348.86,97.81Z" transform="translate(0)"/><path class="cls-96" d="M333.2,66.16c-.72,1-1.43,2-2.15,2.93a.8.8,0,0,1-1.19,0l.36-2.78L333,62C333.58,63.32,331.83,64.83,333.2,66.16Z" transform="translate(0)"/><path class="cls-40" d="M527.93,394.93a54.9,54.9,0,0,1,17.07,0A28.64,28.64,0,0,1,527.93,394.93Z" transform="translate(0)"/><path class="cls-97" d="M329.94,72.06c-1.09,5.63-.93,11.31-.82,17-.94.28-1.47.1-1.14-1-.39-4,1-8-.82-11.89.52-1.73.58-3.63,1.83-5.11C329.6,71.1,329.68,71.66,329.94,72.06Z" transform="translate(0)"/><path class="cls-98" d="M328,88l1.14,1,1.83,7c-.68.54-.15,1.66-1,2.1A34.09,34.09,0,0,1,327.19,88C327.45,88,327.72,88,328,88Z" transform="translate(0)"/><path class="cls-2" d="M324,97.07c-.11.88.4,1.93-.66,2.56V91.3l.66,0Z" transform="translate(0)"/><path class="cls-32" d="M560.93,396a30.84,30.84,0,0,1,12.15,1.85A24.9,24.9,0,0,1,560.93,396Z" transform="translate(0)"/><path class="cls-99" d="M329.94,72.06,329,71c-.08-.82-.09-1.62.87-2l1.19,0Z" transform="translate(0)"/><path class="cls-100" d="M354.89,664.18c.72-1.42,2.13-1.16,3.35-1.36,16.38-.05,28.39-11.87,28.63-28.29.2-13.4-2.91-26.42-4.94-39.54-4.58-29.59-9-59.21-14.9-88.58-1.63-8.14-3.3-16.28-4.73-24.46-2.14-12.22,2.55-23.24,6.41-34.37.27-.77.89-1.7,1.79-1.21a3,3,0,0,1,1.1,2.05,4.73,4.73,0,0,1-.37,2.42c-7.49,17.83-4.81,35.8-1,53.87,8,38.12,13.64,76.62,18.79,115.21a97.48,97.48,0,0,1,1.17,15.9c-.4,14.16-10.6,26.93-23.79,29.65C362.48,666.27,358.45,667,354.89,664.18Z" transform="translate(0)"/><path class="cls-101" d="M390.18,392.09A47.06,47.06,0,0,1,385,412c-2.67,5-6.86,6.18-12.11,3.68-10-4.73-11.63-12.91-4.33-21.11a60.86,60.86,0,0,1,11.59-9.8c2.28-1.55,4.81-3.49,7.71-2s2.06,4.46,2.29,6.95C390.24,390.49,390.18,391.29,390.18,392.09Z" transform="translate(0)"/><path class="cls-102" d="M360.92,315.2a1.89,1.89,0,0,1,1.83-1.18c8.22,7,18.61,9.29,28.42,12.68,6.39,2.21,12.95,4.28,19.86,4.47,1.76.78,3.74,0,5.5.74L418,332a.9.9,0,0,1-.41,1.41c-2.61,0-5.24.48-7.83-.31-13.06-.75-25-5.53-36.85-10.46C368.52,320.82,364.19,318.84,360.92,315.2Z" transform="translate(0)"/><path class="cls-103" d="M482.14,363.32a44.45,44.45,0,0,1-2,5.46c-1.95,3.81-5.93,5.5-9,3.22a131.59,131.59,0,0,0-23-13.44c-.55-.25-.88-.95-1.32-1.44a2.06,2.06,0,0,1,1.5-1.5c7.45,1.6,13.67,5.76,20,9.7,6,4.65,6.58,4.55,10.6-1.92.61-1,1.17-2,2.58-1.77C482.16,362,482.56,362.48,482.14,363.32Z" transform="translate(0)"/><path class="cls-104" d="M482.14,363.32l-1.49-1.43c-1.34-3.61,1-6.41,2.32-9.27,4.21-9.1,4-10.13-3.92-16.54-1.64-1.32-3.6-2.42-4.32-4.63.28-1.22,1.26-1.41,2.29-1.52,3.93,2.17,7.16,5.26,10.46,8.21,3.53,3.15,3,7.13,1.38,10.95C486.77,353.9,484.39,358.58,482.14,363.32Z" transform="translate(0)"/><path class="cls-105" d="M439,331.06c4.31-1.14,8.6-2.32,12.92-3.42a11.47,11.47,0,0,0,5-3,2.3,2.3,0,0,1,1,1.88,9,9,0,0,1-.54,2.82,10.79,10.79,0,0,1-.76,1.95,18.71,18.71,0,0,0-2.89,6.1c-.58,1.29-.9,2.81-2.65,3.1a2.07,2.07,0,0,1-1.84-1.82c-.2-1.64.58-3.37-.47-4.93-1.1-1.86-2.65-1.51-4.25-.85-.95.51-1.9,1-2.84,1.53s-1.68,1.56-2.94.8L438,334c-1.7-1.57-4.85,1.26-6-2a.56.56,0,0,1,.82,0C434.75,330.9,437,332.21,439,331.06Z" transform="translate(0)"/><path class="cls-106" d="M438.65,335.19l2.45-2.12c2.14,3.11,4.35,6.1,8.87,4.91a2.2,2.2,0,0,0,1.06,2c1.25,1.61.43,3.25-.18,4.72-1.46,3.56-1.5,7.45-2.77,11.05l-1.32,1.33c-3.37-3.21-1.7-6.81-.55-10.19.91-2.68,1.47-4.49-2.14-5.62A8.27,8.27,0,0,1,438.65,335.19Z" transform="translate(0)"/><path class="cls-107" d="M266.66,667.87c-5.7,2.57-11.42,1.52-17.12,1-1.28-.11-2.24-.72-1.88-2.25.23-1,.78-2.2,1.91-1.8C255.09,666.76,261,666.59,266.66,667.87Z" transform="translate(0)"/><path class="cls-108" d="M429.21,401.86c-1.35.64-1.12,1.9-1.18,3.05-1.78-3.14-3.59-6.27-5.35-9.43-.38-.68-1-1.57-.19-2.21,1-.8,1.88,0,2.42.85C426.51,396.6,428.46,398.91,429.21,401.86Z" transform="translate(0)"/><path class="cls-109" d="M495.88,328.21c.39-.41.79-.82,1.18-1.24,2.79,3,5.43,6.15,6.92,10.06-.86.41-.91,1.24-1,2Z" transform="translate(0)"/><path class="cls-110" d="M432,332c1.5,2.15,4.46-.1,6,2l-10.88.18a10.94,10.94,0,0,0-5.12-.06l-.48.1-.47-.13c-.77-1-2.22-.11-3-1.05v-1Z" transform="translate(0)"/><path class="cls-111" d="M477,329.93a1.81,1.81,0,0,1-1.83,1c-1.33,1.08-2.74.57-4.14.19-.38-2.32,2.22-1.85,2.93-3.13C475.46,327.91,476.26,328.89,477,329.93Z" transform="translate(0)"/><path class="cls-112" d="M418,333c1.12,0,2.31-.17,3,1.05-3.79.09-7.59.33-11.26-1Z" transform="translate(0)"/><path class="cls-113" d="M422,334.09c1.73-1.59,3.43-1.6,5.12.06A6.5,6.5,0,0,1,422,334.09Z" transform="translate(0)"/><path class="cls-114" d="M388.12,300c9.5,2.83,18.7,6.73,28.76,7.53a101.23,101.23,0,0,0,13.93.13c1.51-.09,3.21-.09,4.16-2.06,3.71-7.75,10.1-10.41,18-7.74a11.56,11.56,0,0,0,2,.31c-.41,2.56-2.54,1.95-4.14,2.17-1.89.25-3.84-.13-5.71.45-3.35,1.28-3.35,1.28-5.59,4.09,2.6.6,5-.28,7.35-.14s4.67-.12,7,.1A4,4,0,0,1,457.2,307c-.23,1.63-1.19,1.67-2.43,1.12-8.87-1.88-17.25,2-26,2.18-15.13.38-29.24-2.95-42.89-9C385.75,299.36,386.75,299.36,388.12,300Z" transform="translate(0)"/><path class="cls-102" d="M388.12,300a2.35,2.35,0,0,0-2.25,1.32c-8.78-3.43-17.31-7.29-24.07-14.15l1.41-1.49C370.61,292,379.44,295.85,388.12,300Z" transform="translate(0)"/><path class="cls-115" d="M454.77,308.12l2.2-.94c1.63-.91,2.87,0,4,.93,4.76,3.75,6.21,13.24,2.87,18.53a2.28,2.28,0,0,1-2.61.48c-1.43-.69-2.75.38-4.15.25-.09-.92-.17-1.84-.26-2.76,2.38-2.33,7-3.2,4.76-8.39A17.12,17.12,0,0,0,454.77,308.12Z" transform="translate(0)"/><path class="cls-106" d="M439,331.06c-1.85,1.71-4.07.79-6.16.87A11.83,11.83,0,0,1,439,331.06Z" transform="translate(0)"/><path class="cls-112" d="M416.53,331.91c-1.86-.08-3.84.76-5.5-.74A10.46,10.46,0,0,1,416.53,331.91Z" transform="translate(0)"/><path class="cls-116" d="M539.92,263.13a2,2,0,0,1,2.14-2.15,18.23,18.23,0,0,0,8.26,1.29c5.37-.66,7.85-6.14,4.69-10.34.72-1.09,1.85-.81,2.88-.87,6-.48,10.23-3.93,14.14-8a1.44,1.44,0,0,1,2.13,0c-.19,5.42-4.62,7.19-8.33,9.43a22.39,22.39,0,0,0-11,15.45c-1.81.65-1-1.72-2.16-1.85-3.85-2.16-7.69-1.32-11.53,0l-1.43-1.4C539.81,264.2,539.86,263.66,539.92,263.13Z" transform="translate(0)"/><path class="cls-117" d="M554.05,273.07c0,4.19,2.39,5.25,6.13,5.31,2.45,0,6.69-.67,6.57,2.49-.14,3.72-4,.54-6.13,1.24-2.57.86-5,.21-7.47-1.21-3.5-2-4.27-3.95-1.36-6.93C552.5,273.55,552.89,272.36,554.05,273.07Z" transform="translate(0)"/><path class="cls-118" d="M574.16,243.09l-2.13,0,.72-1.07c1.64-1.41,0-3.55,1.14-5.07.71-4.58-2.9-7.08-4.94-10.35-.8-1.28-2.88-2.88-1.11-4.2,1.94-1.46,2.49,1.29,3.54,2.31C577,230.09,578.26,236.19,574.16,243.09Z" transform="translate(0)"/><path class="cls-119" d="M554.05,273.07l-2.26.9c1.57-2.47,2.23-5.05.92-7.85l2.16,1.85C554.94,269.73,555.14,271.5,554.05,273.07Z" transform="translate(0)"/><path class="cls-120" d="M573.89,236.91c-.13,1.75.88,3.75-1.14,5.07C573.37,240.34,572.65,238.41,573.89,236.91Z" transform="translate(0)"/><path class="cls-121" d="M509,665.92c-1.55,1.07-.69,2.81-1.15,4.18-1.22-5.77-3.05-11.22-7.93-15.06-.18-1.07.2-1.53,1.31-1.24A14.6,14.6,0,0,1,509,665.92Z" transform="translate(0)"/><path class="cls-122" d="M500,644.89H483.65c5.12-3.41,13.47-3.1,16.28.06Z" transform="translate(0)"/><path class="cls-123" d="M501.23,653.8,499.92,655a34.63,34.63,0,0,0-17.2-5.53C489.53,648.23,495.85,649,501.23,653.8Z" transform="translate(0)"/><path class="cls-124" d="M477.5,651.6l-8.67,4c2.09-3,4.57-5.2,8.1-5.34Z" transform="translate(0)"/><path d="M437,199c2.92,2.66,7-.35,10,2-3.47,5.7-3.35,12-3.13,18.34.08,2.33,1.36,3.58,3.71,3.89,1.63.21,4.31-.8,4.31,1.93,0,3,.74,6.61-3.1,8.22-5.79,2.43-11.63,3-17.12-.67-3-2-5.72-4.49-8.57-6.75-.29-.94.28-1.26,1-1.45,2-.3,3.71,3.06,5.26,1.08,1.31-1.66-1.21-3.44-2-5.19a53.66,53.66,0,0,0-8.27-12.84c-1.37-1.66-3-3.42-5.41-2.73-3,.87-1.42,3.59-1.79,5.53-.3.94-.51,2-1.91,1.64a11.81,11.81,0,0,1-3.29-6c-2.3-11.81-7.25-22.77-11.2-34a6.53,6.53,0,0,0-1.42-2.62c-5-4.51-8.12-9.54-7.46-16.84.28-3.17-2.06-1.71-3.51-.22-.89.93-1.77,3.18-3.35,1.67s0-3.06,1.2-4.22a48.38,48.38,0,0,1,8.56-6.85c3-1.78,4.86-.73,6.49,2.06-7.21,1.95-9.58,10.68-4.89,16.54,1.76,2.21,3.82,2.18,6.26,1.59,11-2.68,11-2.64,10.49,8.36a55.73,55.73,0,0,0-.29,7.45,12.66,12.66,0,0,0,6.51,10.5A80.19,80.19,0,0,0,437,199Z" transform="translate(0)"/><path class="cls-125" d="M392,119.13c-3.05-1-3.31-3.17-2.25-5.81a5.67,5.67,0,0,1,.31-3.38c.38-1.07,1-2,1.4-3.1a22.13,22.13,0,0,1,2.51-3.12l1.67-1.71c3.13-3.21,6.9-3.5,11-2.4,2.86.68,4.28,2.74,5.14,5.34.08,3.23,1.22,6.53-.71,9.6l0,0a7.66,7.66,0,0,1-.52,3.48c-1,1.64-1.28,3.57-2.52,5.06a4.91,4.91,0,0,0-.93,1.13c-2,4.69-4.07,3.62-6.16.07-1.31-1.94.17-4-.27-6a2.37,2.37,0,0,0-2.15-1.93c-1.95-.37-3.33.68-4.65,1.88A3.2,3.2,0,0,1,392,119.13Z" transform="translate(0)"/><path class="cls-71" d="M408,266.06a2.28,2.28,0,0,1-2.07,1,23.87,23.87,0,0,1-14.17-11.58c-5.56-10.28-10.58-20.84-15.83-31.29-.45-1.17-.69-2.23,1.16-2.19,3.92-.27,2-2.42,1.17-4-1.6-3.17-3.45-6.22-3.2-10a58.69,58.69,0,0,1,0-17c1.56-2.65,2.86-2.41,3,.58.2,3.47-.22,7-.24,10.47,0,3.91-.3,7.89,2.24,12.5,1.35-4.27,2.1-7.74,4-10.72.59-.95,1.25-2.37,2.6-1.39,1.13.83-.17,1.68-.58,2.49-5.61,11.05-6.49,21.76-.29,33.33,5.55,10.34,10.71,20.59,20.82,27.28A6.38,6.38,0,0,0,408,266.06Z" transform="translate(0)"/><path class="cls-126" d="M329.93,98.18c.15-.79.18-1.64,1-2.1,2.34,6.7,8.09,10.34,13.21,14.47,1.53,1.24,3.5,1.22,4-1.49,1.12-2.21-.67-4.87,1.07-7h.57c1.18,2,.78,4.09.28,6.17-1.39,7.62-2.93,8.4-8.89,3.64C336.55,108.16,331.13,104.85,329.93,98.18Z" transform="translate(0)"/><path class="cls-127" d="M434,250c.15,1.5.8,2,2.32,1.4,1.26-.53,2.58-.73,3.63.52-7.21,1.81-21.27-3.25-25.32-9.13-.67-1-1.29-2.22-.22-3.13s1.81.26,2.52.88C422,244.89,427.3,248.64,434,250Z" transform="translate(0)"/><path class="cls-128" d="M428.06,106.93c-8.2-.87-12.18,1.75-11.86,7.79.14,2.64,1,4,3.81,2.46.4.32,1,.38,1.17,1-4.16,3.9-4.8,3.74-7.31-1.84-.34-1.75-1.41-3.51.14-5.21a15.44,15.44,0,0,1,5.84-6.18,14,14,0,0,1,6.49-.08C427.75,104.86,428,105.8,428.06,106.93Z" transform="translate(0)"/><path class="cls-129" d="M410,212c.86-.45.9-1.31,1.07-2.11a2.28,2.28,0,0,1,2.54,1.15c2.68,4,6.08,7.44,9.4,10.92.77.8,1.64,1.73.94,3.06L423,226C417.63,222.34,413,218,410,212Z" transform="translate(0)"/><path class="cls-130" d="M392,119.13c.33-.36.66-.72,1-1.09,1.8-.59,1.9,1.42,3,1.92,1.07.82,2.45,1.06,3.51,1.88.58.74,1.21,1.47.66,2.51l-.82.86c-1.68.86-3.69-.32-5.31.87-1.72.06-3.34,2.45-5.18.25-.06-2,1.07-1.87,2.42-1.39C394.14,123.35,392,121.1,392,119.13Z" transform="translate(0)"/><path class="cls-131" d="M391.23,124.94a2.78,2.78,0,0,0-2.42,1.39c-4.51-3.13-9.28-3.94-14.43-1.68-1.15.5-2.77,1.25-3.17-.55-.35-1.59,1.6-1.3,2.53-1.68C380,119.85,385.79,121.41,391.23,124.94Z" transform="translate(0)"/><path class="cls-132" d="M421.18,118.18l-1.17-1c2.09-.15,4.32-1.09,6,1.12,1.37,2.07-.44,4.69,1.14,6.72l0,0c1,2.12,3.57.28,4.8,1.86a.62.62,0,0,1-.66.32,8.07,8.07,0,0,1-5.4,0L424,126c-.74-.55-1.77-1-1.16-2.22C425.34,121,425.61,118.91,421.18,118.18Z" transform="translate(0)"/><path class="cls-133" d="M414,111.13c-.05,1.73-.09,3.47-.14,5.21-.84-.77-1.12-2.43-2.85-1.79,0-3.48-.11-7-.16-10.45a1,1,0,0,1,1.41-.2C414.05,106,412.06,109.05,414,111.13Z" transform="translate(0)"/><path class="cls-134" d="M372.79,217.29c-1.65-2.91-3.45-5.77-3.92-9.19a1.63,1.63,0,0,1,1.31-1.34,35.58,35.58,0,0,1,3.66,9.37C373.61,216.63,373.52,217.25,372.79,217.29Z" transform="translate(0)"/><path class="cls-135" d="M444,299.93c3.36-2.41,7.58.51,11-1.79,2-.09,3.86,1.58,6,.77l-2,2.26C453.84,302,448.79,302.42,444,299.93Z" transform="translate(0)"/><path class="cls-136" d="M463,172.76a2.32,2.32,0,0,1-2.26,2.19,2,2,0,0,1-2.1-2.3,2.15,2.15,0,0,1,2.24-2.22C462.21,170.43,462.87,171.39,463,172.76Z" transform="translate(0)"/><path class="cls-137" d="M375,191q0,8.52,0,17A30.25,30.25,0,0,1,375,191Z" transform="translate(0)"/><path class="cls-138" d="M443.93,159.86c1.35.13,2.11.82,2,2.21a1.88,1.88,0,0,1-1.78,2,1.9,1.9,0,0,1-2.27-2C441.8,160.68,442.63,160,443.93,159.86Z" transform="translate(0)"/><path class="cls-139" d="M447.62,173a2.17,2.17,0,0,1-2.25,2.12,2,2,0,0,1-2.13-2.2,1.92,1.92,0,0,1,1.92-1.89A2.18,2.18,0,0,1,447.62,173Z" transform="translate(0)"/><path class="cls-140" d="M406.87,100.4A17.14,17.14,0,0,0,395.62,102c.59-3,3-3.42,5.38-3.86,1.57,1,3.53-.16,5.11.87a3.71,3.71,0,0,1,.88,0A.87.87,0,0,1,406.87,100.4Z" transform="translate(0)"/><path class="cls-141" d="M424.55,260.53c.35-1.25,1-2.13,2.39-2a1.93,1.93,0,0,1,1.88,1.9,2,2,0,0,1-2.1,2.21A2.18,2.18,0,0,1,424.55,260.53Z" transform="translate(0)"/><path class="cls-142" d="M370.18,206.76c-.44.45-.87.9-1.31,1.34-1.52-1.8-2.64-3.71-1.64-6.54C369.51,202.75,369.83,204.76,370.18,206.76Z" transform="translate(0)"/><path class="cls-143" d="M440.43,257.69c-.11,1.18-.68,2.15-2.07,2.18a2,2,0,0,1-2-1.77c-.2-1.42.75-2.15,2-2.23C439.43,255.8,440.15,256.5,440.43,257.69Z" transform="translate(0)"/><path class="cls-144" d="M406.87,100.4l.12-1.34c3.18.07,4.53,2.13,5.28,4.84l-1.41.2Z" transform="translate(0)"/><path class="cls-145" d="M350.1,108.24q-.14-3.09-.28-6.17c.53-1.63-.36-3.55,1-5C350.84,100.81,351.47,104.59,350.1,108.24Z" transform="translate(0)"/><path class="cls-146" d="M400.12,124.35,399,122.22a9.41,9.41,0,0,1,1.26-4.36c.38-.56.82-1,1.6-.74,1.37,2.63-.23,4.86-1,7.21l-.38,0Z" transform="translate(0)"/><path class="cls-83" d="M422.85,123.8c.38.74.77,1.48,1.16,2.22l-2.84,1.14c-1.17.11-2.73,1.45-3.1-1Z" transform="translate(0)"/><path class="cls-147" d="M377.06,222c-.92.45-1,1.35-1.16,2.19q-1.29-2.13-2.56-4.27a2.23,2.23,0,0,1,1.7-1C375.71,220,376.38,221,377.06,222Z" transform="translate(0)"/><path class="cls-148" d="M431.92,111.34c-1.47-1.07-2.76-2.27-3.08-4.19C431.88,107.06,432.1,109.05,431.92,111.34Z" transform="translate(0)"/><path class="cls-149" d="M409.91,117.93c.37-1.11.73-2.22,1.09-3.33,1.7,2.2.51,3.93-.94,5.62A1.72,1.72,0,0,1,409.91,117.93Z" transform="translate(0)"/><path class="cls-150" d="M375,219a1.67,1.67,0,0,1-1.7,1c-.18-.88-.37-1.76-.55-2.64l1-1.16Z" transform="translate(0)"/><path class="cls-151" d="M392.07,107.23l-1.2,2.81c-1.94-.06-1.2-1.31-1-2.3l1-1.78C391.88,105.75,392.46,106,392.07,107.23Z" transform="translate(0)"/><path class="cls-152" d="M351.13,92.33l0-6.43C352.52,88,352.25,90.18,351.13,92.33Z" transform="translate(0)"/><path class="cls-153" d="M389.84,107.74c.34.76.68,1.53,1,2.3l-1.14,3.28A4.44,4.44,0,0,1,389.84,107.74Z" transform="translate(0)"/><path class="cls-154" d="M426.34,104.87l-6.49.08A6.44,6.44,0,0,1,426.34,104.87Z" transform="translate(0)"/><path class="cls-155" d="M409.91,117.93l.15,2.28a3,3,0,0,1-2.1,2.92A10.67,10.67,0,0,1,409.91,117.93Z" transform="translate(0)"/><path class="cls-156" d="M392.07,107.23,390.82,106a3.44,3.44,0,0,1,3.13-2.24C394,105.25,393,106.22,392.07,107.23Z" transform="translate(0)"/><path class="cls-83" d="M425.81,127.14h5.4A4.58,4.58,0,0,1,425.81,127.14Z" transform="translate(0)"/><path class="cls-157" d="M418.07,126.18c.76,1.18,2,.78,3.1,1-1.07.85-2.27,1.33-3.48.46C417.13,127.22,417.31,126.51,418.07,126.18Z" transform="translate(0)"/><path class="cls-158" d="M406.11,99c-1.72-.18-3.62.66-5.11-.87C402.76,98.09,404.68,97.13,406.11,99Z" transform="translate(0)"/><path class="cls-131" d="M394,126.08c1.54-1.69,3.5-.84,5.31-.87C397.7,126.53,395.78,125.88,394,126.08Z" transform="translate(0)"/><path class="cls-159" d="M490.64,163.36a1.88,1.88,0,0,1-2.07,1.63,1.58,1.58,0,0,1-1.49-2,1.52,1.52,0,0,1,1.69-1.35C489.8,161.72,490.61,162.18,490.64,163.36Z" transform="translate(0)"/><path class="cls-160" d="M500.7,150c-.2,1.07-.84,1.83-2,1.68a1.6,1.6,0,0,1-1.5-1.69,1.68,1.68,0,0,1,2-1.72A1.73,1.73,0,0,1,500.7,150Z" transform="translate(0)"/><path class="cls-83" d="M427.11,125c-2.2-1.93-.7-4.49-1.14-6.72C428.13,120.24,426.1,122.89,427.11,125Z" transform="translate(0)"/><path class="cls-161" d="M471.05,331.16c1.3-2,2.73-.93,4.14-.19l8,6.68c4.78,4,5.31,6.32,2.7,12-1.83,4-4.41,7.73-5.2,12.2-.26.57-.57,1.12-.78,1.71-2.88,7.85-5.92,8.54-12,2.71-1.47-2.12-3.94-2.91-5.95-4.36.07-2.09,2.77-2.42,2.87-4.42a6.92,6.92,0,0,1,2.39-3.4c2.65-2,3.08-3.78-.4-5.35-1.59-.72-4.31-.13-4.65-2.07-.42-2.35,1.25-4.58,2.45-6.67a13.67,13.67,0,0,1,1.29-1.48,12.42,12.42,0,0,1,1.48-1.42c1.87-1.15,2.49-3.23,3.67-4.9Z" transform="translate(0)"/><path class="cls-162" d="M444,299.93c5-.38,10.07-.43,14.94,1.24,11.43,8.17,13.56,14.51,10,29.69-.81,1.61,0,3.78-1.69,5.09-2.12,1.94-4.51,3.13-7,.85-2.29-2.15-.76-4.53.28-6.76a7.07,7.07,0,0,1,2.46-3c3.46-8.29,1.06-16.18-6-19.86-1-.29-1.4-1.6-2.64-1.29a20.58,20.58,0,0,0-8.7,0c-1.47.15-2.95.29-4.42.45-1.21.13-2.77,1.35-3.42-.48-.54-1.52.45-2.9,1.8-3.72S442.51,300.66,444,299.93Z" transform="translate(0)"/><path class="cls-111" d="M467,335.1c.64-1.41,1.28-2.83,1.91-4.24.09.87.21,1.72,1.11,2.16,1,1.91-.25,2.75-1.73,3.45C467.47,336.39,466.86,336.1,467,335.1Z" transform="translate(0)"/><path class="cls-162" d="M468.26,336.15A3.39,3.39,0,0,0,470,333l1-.78c.13,2.62-.4,4.84-3.35,5.63C467.4,337.14,467.37,336.49,468.26,336.15Z" transform="translate(0)"/><path class="cls-163" d="M349.25,102.07c-.72,2.27.75,4.89-1.07,7-.24-3.78-.48-7.56.68-11.25Z" transform="translate(0)"/><path class="cls-164" d="M466.84,338.71l-4.21,7.89c3,.94,6.72.17,8,3.89.83,2.43-.9,3.59-2.84,4.43-.26-3.24-1.47-5.47-5.19-5.74-3.1-.23-3.73-2.23-2.16-5.26-2.3,1-3.53,2.2-3.4,3.94.18,2.29,2.42,1.78,3.9,2.19,3.09.88,6.14,1.66,3.37,5.91-1.29,2,.58,1.57,1.54,1.8.38,2.36-1.43,2.94-3.16,3.68,1.69,1.77,4.68,2,5.19,4.87-6.32-4-13.09-7.2-19.79-10.52C446,350,450.23,345.31,451,340c.61-1,1.23-2,1.84-3,1-2.12,2.08-4.18,3-6.35.12-.52.23-1.05.34-1.57,1.32-.89,2.8-2.59,3.39.61a11.22,11.22,0,0,1-.81,2.62c-.55,1.67-1,3.33.42,4.83C461.29,339.84,464.47,337.31,466.84,338.71Z" transform="translate(0)"/><path class="cls-165" d="M450,338c-1.1,1.79-2.48,2.42-4.48,1.31-2.51-1.37-5-2.71-4.39-6.22A3.82,3.82,0,0,0,444,332c2.28-.85,4.32-.7,5.88,1.43C450.94,334.9,450.14,336.45,450,338Z" transform="translate(0)"/><path class="cls-166" d="M458.93,329.76c-.36-2.44-1.89-.26-2.75-.7l.95-1.69c1.4-.21,1.72-3.62,4-1.35C461.66,328,462,329.84,458.93,329.76Z" transform="translate(0)"/><path class="cls-166" d="M455.84,330.63a8.66,8.66,0,0,1-3,6.35A10.34,10.34,0,0,1,455.84,330.63Z" transform="translate(0)"/><path class="cls-106" d="M449.86,333.4c-1.72-1.48-3.78-1.53-5.88-1.43C446.41,330.5,448.59,330.11,449.86,333.4Z" transform="translate(0)"/><path class="cls-115" d="M445.63,305.89a9.16,9.16,0,0,1,8.7,0Z" transform="translate(0)"/><path class="cls-167" d="M458.93,329.76c1.61-.74,1.74-2.32,2.16-3.74l1.93,1c.29,1.26-.62,2.15-1,3.2-.69,1.87-3.1,3.65-1.13,5.72,2.13,2.23,4.17.09,6.13-.86l1.25,1c-.2.57-.39,1.15-.59,1.72l-.83.84c-2.95.71-6.06,3.21-8.57-.79-1.41-1.89-.82-3.91-.38-5.92C458.12,331.2,458,330.21,458.93,329.76Z" transform="translate(0)"/><path class="cls-168" d="M423.93,225.06q-6.45-7.56-12.88-15.13c-1.34-2.49-1.34-4.94,1.19-6.52s4.44.2,6.16,1.8c5.83,5.42,9,12.63,12.78,19.4a2.2,2.2,0,0,1,0,2.76,2.59,2.59,0,0,1-3.22.46A28.29,28.29,0,0,1,423.93,225.06Z" transform="translate(0)"/><path class="cls-169" d="M394.93,121.09l-2-3c1.15-2.69,3.11-3.64,5.93-2.76.32,1.4-1,1.79-1.6,2.6C396.33,118.83,396,120.26,394.93,121.09Z" transform="translate(0)"/><path class="cls-170" d="M396.94,116.82l1.95-1.54a3.23,3.23,0,0,1,2.94,1.84l-.93,1.11A3.22,3.22,0,0,1,396.94,116.82Z" transform="translate(0)"/><path class="cls-171" d="M396.94,116.82c1.41.21,2.91.17,4,1.41a4.5,4.5,0,0,1-1.93,4c-1.4-.21-3,.22-4-1.13C394.9,119.34,394.06,117.2,396.94,116.82Z" transform="translate(0)"/><path class="cls-172" d="M465.84,357.76c-1.07.74-1.74,2.71-3.58,1.07-1.59-1.43-.3-2.42.56-3.26,3.13-3.09,1.28-3.92-1.82-4.27a2,2,0,0,1-.49-.08c-2-.82-5.59,1-5.58-3,0-2.89,4.49-6,7.7-5.89.67,1.17-.41,1.77-.87,2.55s-1.52,1.34-1.37,2.51c9.43,2.61,9.43,2.61,7.39,7.49A4.82,4.82,0,0,0,465.84,357.76Z" transform="translate(0)"/><path class="cls-173" d="M481.14,347.41l-4.66,6.92c-3.22-4.3-4-9.12-5.55-13.59-.38-1.1.4-1.91,1.62-1.89,3.24,0,6.68-.38,8.39,3.42C481.88,344,481.48,345.68,481.14,347.41Z" transform="translate(0)"/><path class="cls-174" d="M481.14,347.41c-.07-1.71-.14-3.43-.2-5.14C482.52,343.92,482.25,345.65,481.14,347.41Z" transform="translate(0)"/><path class="cls-166" d="M457.89,332c.13,2,.25,3.95.38,5.92C456.08,336.08,456.55,334.07,457.89,332Z" transform="translate(0)"/><path class="cls-175" d="M472.79,342.36c3.54-.15,5.82-1.4,6.46,1.6.32,1.45-.25,3.41-1.68,3.6C473.83,348.06,475.89,344,472.79,342.36Z" transform="translate(0)"/></svg>